<svg width="438" height="171" viewBox="0 0 438 171" fill="none" xmlns="http://www.w3.org/2000/svg">
<path d="M2.88 122.35C2.44 122.35 2.1 122.22 1.86 121.96C1.62 121.72 1.5 121.11 1.5 120.13C1.5 119.23 1.66 118.06 1.98 116.62C2.3 115.16 2.73 113.54 3.27 111.76C3.81 109.98 4.42 108.14 5.1 106.24C5.78 104.32 6.49 102.44 7.23 100.6C7.99 98.74 8.72 97.04 9.42 95.5C9.68 94.94 9.95 94.55 10.23 94.33C10.51 94.11 10.84 94 11.22 94C11.48 94 11.7 94.08 11.88 94.24C12.08 94.38 12.18 94.62 12.18 94.96C12.18 95.08 12.05 95.47 11.79 96.13C11.55 96.79 11.21 97.66 10.77 98.74C10.35 99.82 9.88 101.03 9.36 102.37C8.84 103.71 8.31 105.12 7.77 106.6C7.23 108.08 6.72 109.57 6.24 111.07C5.76 112.55 5.35 113.97 5.01 115.33C4.67 116.69 4.44 117.91 4.32 118.99C4.8 118.41 5.35 117.67 5.97 116.77C6.59 115.87 7.25 114.9 7.95 113.86C8.65 112.82 9.36 111.79 10.08 110.77C10.8 109.75 11.51 108.82 12.21 107.98C12.91 107.14 13.56 106.47 14.16 105.97C14.78 105.45 15.32 105.19 15.78 105.19C16.54 105.19 17.15 105.43 17.61 105.91C18.09 106.37 18.33 107.13 18.33 108.19C18.33 108.79 18.21 109.51 17.97 110.35C17.75 111.19 17.49 112.07 17.19 112.99C16.89 113.91 16.62 114.79 16.38 115.63C16.16 116.47 16.05 117.19 16.05 117.79C16.05 118.61 16.36 119.02 16.98 119.02C17.94 119.02 18.9 118.81 19.86 118.39C20.84 117.97 21.77 117.45 22.65 116.83C23.53 116.19 24.34 115.55 25.08 114.91C25.82 114.25 26.45 113.69 26.97 113.23C27.53 112.73 28 112.48 28.38 112.48C28.86 112.48 29.1 112.73 29.1 113.23C29.1 113.37 29.07 113.53 29.01 113.71C28.95 113.89 28.79 114.12 28.53 114.4C28.21 114.76 27.75 115.23 27.15 115.81C26.57 116.39 25.89 117.01 25.11 117.67C24.35 118.33 23.52 118.95 22.62 119.53C21.74 120.11 20.83 120.59 19.89 120.97C18.97 121.33 18.07 121.51 17.19 121.51C15.99 121.51 15.06 121.17 14.4 120.49C13.76 119.79 13.44 118.83 13.44 117.61C13.44 116.85 13.56 115.93 13.8 114.85C14.04 113.77 14.34 112.63 14.7 111.43C15.08 110.21 15.46 109.02 15.84 107.86C15.2 108.3 14.5 108.96 13.74 109.84C13 110.7 12.22 111.68 11.4 112.78C10.58 113.86 9.76 114.96 8.94 116.08C8.14 117.2 7.36 118.24 6.6 119.2C5.86 120.14 5.17 120.9 4.53 121.48C3.89 122.06 3.34 122.35 2.88 122.35ZM31.5476 121.3C30.3676 121.3 29.4376 120.85 28.7576 119.95C28.0776 119.05 27.7376 117.88 27.7376 116.44C27.7376 115.92 27.8076 115.37 27.9476 114.79C28.1076 114.19 28.3076 113.65 28.5476 113.17C28.4076 113.03 28.2976 112.84 28.2176 112.6C28.1376 112.34 28.0976 112.02 28.0976 111.64C28.0976 110.46 28.2976 109.38 28.6976 108.4C29.0976 107.42 29.6276 106.57 30.2876 105.85C30.9476 105.11 31.6776 104.54 32.4776 104.14C33.2976 103.74 34.1276 103.54 34.9676 103.54C36.3476 103.54 37.4676 104.04 38.3276 105.04C39.1876 106.02 39.6176 107.52 39.6176 109.54C39.6176 110.6 39.4576 111.68 39.1376 112.78C38.8376 113.88 38.4176 114.94 37.8776 115.96C37.3576 116.98 36.7476 117.89 36.0476 118.69C35.3676 119.49 34.6376 120.13 33.8576 120.61C33.0976 121.07 32.3276 121.3 31.5476 121.3ZM30.5276 112.15C30.6476 112.31 30.7076 112.52 30.7076 112.78C30.7076 113.08 30.6476 113.38 30.5276 113.68C30.4276 113.98 30.3176 114.39 30.1976 114.91C30.0776 115.43 30.0176 116.17 30.0176 117.13C30.0176 118.09 30.3976 118.57 31.1576 118.57C31.9976 118.57 32.7776 118.24 33.4976 117.58C34.2176 116.9 34.8576 116.03 35.4176 114.97C35.9776 113.91 36.4076 112.78 36.7076 111.58C37.0276 110.36 37.1876 109.21 37.1876 108.13C37.1876 107.43 37.0576 106.94 36.7976 106.66C36.5376 106.36 36.0676 106.21 35.3876 106.21C34.6876 106.21 33.9576 106.45 33.1976 106.93C32.4576 107.39 31.8376 108.02 31.3376 108.82C30.8376 109.62 30.5876 110.52 30.5876 111.52C30.5876 111.74 30.5676 111.95 30.5276 112.15ZM46.5755 120.25C46.2755 120.25 45.9755 120.03 45.6755 119.59C45.3955 119.15 45.1855 118.53 45.0455 117.73C44.9055 116.89 44.7755 115.93 44.6555 114.85C44.5355 113.77 44.4355 112.71 44.3555 111.67C44.2755 110.63 44.2155 109.71 44.1755 108.91C44.1355 108.11 44.1155 107.57 44.1155 107.29C44.1155 106.25 44.2755 105.48 44.5955 104.98C44.9355 104.46 45.3655 104.2 45.8855 104.2C46.2455 104.2 46.5055 104.3 46.6655 104.5C46.8255 104.68 46.9055 105.1 46.9055 105.76C46.9055 106.2 46.9155 106.77 46.9355 107.47C46.9555 108.17 46.9855 108.93 47.0255 109.75C47.0655 110.73 47.1055 111.77 47.1455 112.87C47.1855 113.95 47.2155 115.02 47.2355 116.08C47.7155 115.28 48.2655 114.39 48.8855 113.41C49.5255 112.43 50.1755 111.43 50.8355 110.41C51.4955 109.37 52.1355 108.38 52.7555 107.44C53.3755 106.5 53.9255 105.68 54.4055 104.98C54.8855 104.28 55.2555 103.77 55.5155 103.45C55.8555 103.05 56.1655 102.77 56.4455 102.61C56.7455 102.45 57.0055 102.37 57.2255 102.37C57.5255 102.37 57.7655 102.48 57.9455 102.7C58.1455 102.92 58.2455 103.23 58.2455 103.63C58.2455 103.87 58.1955 104.14 58.0955 104.44C58.0155 104.72 57.8655 105.01 57.6455 105.31C57.1055 106.13 56.4555 107.09 55.6955 108.19C54.9355 109.29 54.1455 110.43 53.3255 111.61C52.5055 112.79 51.7055 113.94 50.9255 115.06C50.1455 116.16 49.4655 117.13 48.8855 117.97C47.8655 119.49 47.0955 120.25 46.5755 120.25ZM71.8308 107.59C71.8308 108.87 71.2208 110.11 70.0008 111.31C68.7808 112.51 66.9208 113.61 64.4208 114.61C64.3408 115.11 64.3008 115.53 64.3008 115.87C64.3008 116.67 64.4008 117.25 64.6008 117.61C64.8208 117.97 65.1808 118.15 65.6808 118.15C66.4208 118.15 67.2508 117.92 68.1708 117.46C69.0908 116.98 70.0408 116.37 71.0208 115.63C72.0008 114.87 72.9608 114.07 73.9008 113.23C74.8608 112.39 75.7408 111.6 76.5408 110.86C77.3408 110.1 78.0208 109.49 78.5808 109.03C79.1408 108.55 79.5208 108.31 79.7208 108.31C80.0008 108.31 80.2308 108.44 80.4108 108.7C80.5908 108.94 80.6808 109.27 80.6808 109.69C80.6808 110.21 80.6508 110.81 80.5908 111.49C80.5308 112.15 80.4608 112.85 80.3808 113.59C80.9008 112.13 81.5508 110.86 82.3308 109.78C83.1308 108.68 83.9808 107.77 84.8808 107.05C85.7808 106.33 86.6608 105.79 87.5208 105.43C88.3808 105.07 89.1208 104.89 89.7408 104.89C90.3208 104.89 90.7508 105 91.0308 105.22C91.3108 105.44 91.4508 105.7 91.4508 106C91.4508 106.28 91.3208 106.54 91.0608 106.78C90.8208 107 90.2608 107.29 89.3808 107.65C88.3608 108.05 87.4008 108.52 86.5008 109.06C85.6208 109.6 84.8008 110.34 84.0408 111.28C83.2808 112.2 82.6008 113.43 82.0008 114.97C81.4008 116.51 80.8908 118.49 80.4708 120.91C80.3908 121.39 80.2508 121.73 80.0508 121.93C79.8508 122.15 79.6108 122.26 79.3308 122.26C79.1308 122.26 78.9308 122.17 78.7308 121.99C78.5308 121.83 78.3708 121.44 78.2508 120.82C78.1308 120.18 78.0708 119.18 78.0708 117.82C78.0708 116.9 78.1108 115.9 78.1908 114.82C78.2908 113.74 78.4308 112.61 78.6108 111.43C77.6908 112.43 76.6708 113.48 75.5508 114.58C74.4308 115.66 73.2708 116.67 72.0708 117.61C70.8708 118.53 69.6908 119.28 68.5308 119.86C67.3708 120.44 66.2908 120.73 65.2908 120.73C64.2308 120.73 63.3808 120.36 62.7408 119.62C62.1008 118.88 61.7808 117.78 61.7808 116.32C61.7808 114.64 62.0008 113.1 62.4408 111.7C62.8808 110.3 63.4508 109.09 64.1508 108.07C64.8508 107.03 65.6008 106.23 66.4008 105.67C67.2008 105.11 67.9708 104.83 68.7108 104.83C69.7108 104.83 70.4808 105.09 71.0208 105.61C71.5608 106.11 71.8308 106.77 71.8308 107.59ZM64.9008 112.42C65.5008 112 66.1508 111.53 66.8508 111.01C67.5708 110.49 68.1808 109.96 68.6808 109.42C69.2008 108.86 69.4608 108.35 69.4608 107.89C69.4608 107.61 69.3908 107.41 69.2508 107.29C69.1108 107.17 68.8708 107.11 68.5308 107.11C67.9908 107.11 67.4908 107.38 67.0308 107.92C66.5708 108.44 66.1608 109.11 65.8008 109.93C65.4408 110.73 65.1408 111.56 64.9008 112.42ZM109.184 121.3C108.004 121.3 107.074 120.85 106.394 119.95C105.714 119.05 105.374 117.88 105.374 116.44C105.374 115.92 105.444 115.37 105.584 114.79C105.744 114.19 105.944 113.65 106.184 113.17C106.044 113.03 105.934 112.84 105.854 112.6C105.774 112.34 105.734 112.02 105.734 111.64C105.734 110.46 105.934 109.38 106.334 108.4C106.734 107.42 107.264 106.57 107.924 105.85C108.584 105.11 109.314 104.54 110.114 104.14C110.934 103.74 111.764 103.54 112.604 103.54C113.984 103.54 115.104 104.04 115.964 105.04C116.824 106.02 117.254 107.52 117.254 109.54C117.254 110.6 117.094 111.68 116.774 112.78C116.474 113.88 116.054 114.94 115.514 115.96C114.994 116.98 114.384 117.89 113.684 118.69C113.004 119.49 112.274 120.13 111.494 120.61C110.734 121.07 109.964 121.3 109.184 121.3ZM108.164 112.15C108.284 112.31 108.344 112.52 108.344 112.78C108.344 113.08 108.284 113.38 108.164 113.68C108.064 113.98 107.954 114.39 107.834 114.91C107.714 115.43 107.654 116.17 107.654 117.13C107.654 118.09 108.034 118.57 108.794 118.57C109.634 118.57 110.414 118.24 111.134 117.58C111.854 116.9 112.494 116.03 113.054 114.97C113.614 113.91 114.044 112.78 114.344 111.58C114.664 110.36 114.824 109.21 114.824 108.13C114.824 107.43 114.694 106.94 114.434 106.66C114.174 106.36 113.704 106.21 113.024 106.21C112.324 106.21 111.594 106.45 110.834 106.93C110.094 107.39 109.474 108.02 108.974 108.82C108.474 109.62 108.224 110.52 108.224 111.52C108.224 111.74 108.204 111.95 108.164 112.15ZM124.212 120.25C123.912 120.25 123.612 120.03 123.312 119.59C123.032 119.15 122.822 118.53 122.682 117.73C122.542 116.89 122.412 115.93 122.292 114.85C122.172 113.77 122.072 112.71 121.992 111.67C121.912 110.63 121.852 109.71 121.812 108.91C121.772 108.11 121.752 107.57 121.752 107.29C121.752 106.25 121.912 105.48 122.232 104.98C122.572 104.46 123.002 104.2 123.522 104.2C123.882 104.2 124.142 104.3 124.302 104.5C124.462 104.68 124.542 105.1 124.542 105.76C124.542 106.2 124.552 106.77 124.572 107.47C124.592 108.17 124.622 108.93 124.662 109.75C124.702 110.73 124.742 111.77 124.782 112.87C124.822 113.95 124.852 115.02 124.872 116.08C125.352 115.28 125.902 114.39 126.522 113.41C127.162 112.43 127.812 111.43 128.472 110.41C129.132 109.37 129.772 108.38 130.392 107.44C131.012 106.5 131.562 105.68 132.042 104.98C132.522 104.28 132.892 103.77 133.152 103.45C133.492 103.05 133.802 102.77 134.082 102.61C134.382 102.45 134.642 102.37 134.862 102.37C135.162 102.37 135.402 102.48 135.582 102.7C135.782 102.92 135.882 103.23 135.882 103.63C135.882 103.87 135.832 104.14 135.732 104.44C135.652 104.72 135.502 105.01 135.282 105.31C134.742 106.13 134.092 107.09 133.332 108.19C132.572 109.29 131.782 110.43 130.962 111.61C130.142 112.79 129.342 113.94 128.562 115.06C127.782 116.16 127.102 117.13 126.522 117.97C125.502 119.49 124.732 120.25 124.212 120.25ZM149.468 107.59C149.468 108.87 148.858 110.11 147.638 111.31C146.418 112.51 144.558 113.61 142.058 114.61C141.978 115.11 141.938 115.53 141.938 115.87C141.938 116.67 142.038 117.25 142.238 117.61C142.458 117.97 142.818 118.15 143.318 118.15C144.058 118.15 144.888 117.92 145.808 117.46C146.728 116.98 147.678 116.37 148.658 115.63C149.638 114.87 150.598 114.07 151.538 113.23C152.498 112.39 153.378 111.6 154.178 110.86C154.978 110.1 155.658 109.49 156.218 109.03C156.778 108.55 157.158 108.31 157.358 108.31C157.638 108.31 157.868 108.44 158.048 108.7C158.228 108.94 158.318 109.27 158.318 109.69C158.318 110.21 158.288 110.81 158.228 111.49C158.168 112.15 158.098 112.85 158.018 113.59C158.538 112.13 159.188 110.86 159.968 109.78C160.768 108.68 161.618 107.77 162.518 107.05C163.418 106.33 164.298 105.79 165.158 105.43C166.018 105.07 166.758 104.89 167.378 104.89C167.958 104.89 168.388 105 168.668 105.22C168.948 105.44 169.088 105.7 169.088 106C169.088 106.28 168.958 106.54 168.698 106.78C168.458 107 167.898 107.29 167.018 107.65C165.998 108.05 165.038 108.52 164.138 109.06C163.258 109.6 162.438 110.34 161.678 111.28C160.918 112.2 160.238 113.43 159.638 114.97C159.038 116.51 158.528 118.49 158.108 120.91C158.028 121.39 157.888 121.73 157.688 121.93C157.488 122.15 157.248 122.26 156.968 122.26C156.768 122.26 156.568 122.17 156.368 121.99C156.168 121.83 156.008 121.44 155.888 120.82C155.768 120.18 155.708 119.18 155.708 117.82C155.708 116.9 155.748 115.9 155.828 114.82C155.928 113.74 156.068 112.61 156.248 111.43C155.328 112.43 154.308 113.48 153.188 114.58C152.068 115.66 150.908 116.67 149.708 117.61C148.508 118.53 147.328 119.28 146.168 119.86C145.008 120.44 143.928 120.73 142.928 120.73C141.868 120.73 141.018 120.36 140.378 119.62C139.738 118.88 139.418 117.78 139.418 116.32C139.418 114.64 139.638 113.1 140.078 111.7C140.518 110.3 141.088 109.09 141.788 108.07C142.488 107.03 143.238 106.23 144.038 105.67C144.838 105.11 145.608 104.83 146.348 104.83C147.348 104.83 148.118 105.09 148.658 105.61C149.198 106.11 149.468 106.77 149.468 107.59ZM142.538 112.42C143.138 112 143.788 111.53 144.488 111.01C145.208 110.49 145.818 109.96 146.318 109.42C146.838 108.86 147.098 108.35 147.098 107.89C147.098 107.61 147.028 107.41 146.888 107.29C146.748 107.17 146.508 107.11 146.168 107.11C145.628 107.11 145.128 107.38 144.668 107.92C144.208 108.44 143.798 109.11 143.438 109.93C143.078 110.73 142.778 111.56 142.538 112.42ZM188.771 121.42C187.791 121.42 186.941 121.2 186.221 120.76C185.521 120.3 184.981 119.71 184.601 118.99C184.221 118.27 184.031 117.53 184.031 116.77C184.031 115.17 184.311 113.71 184.871 112.39C185.431 111.05 186.131 109.87 186.971 108.85C187.831 107.81 188.711 106.93 189.611 106.21C190.531 105.49 191.361 104.95 192.101 104.59C192.861 104.21 193.401 104.02 193.721 104.02C194.361 104.02 194.681 104.34 194.681 104.98C194.681 105.28 194.481 105.63 194.081 106.03C193.681 106.41 193.171 106.86 192.551 107.38C191.931 107.9 191.271 108.49 190.571 109.15C189.871 109.79 189.211 110.52 188.591 111.34C187.971 112.14 187.461 113.04 187.061 114.04C186.661 115.02 186.461 116.1 186.461 117.28C186.461 118.48 186.951 119.08 187.931 119.08C188.831 119.08 189.751 118.91 190.691 118.57C191.651 118.23 192.591 117.79 193.511 117.25C194.451 116.69 195.351 116.11 196.211 115.51C197.071 114.91 197.851 114.34 198.551 113.8C199.251 113.24 199.841 112.79 200.321 112.45C200.801 112.11 201.141 111.94 201.341 111.94C201.741 111.94 201.941 112.16 201.941 112.6C201.941 112.94 201.711 113.39 201.251 113.95C200.791 114.51 200.171 115.12 199.391 115.78C198.611 116.44 197.741 117.11 196.781 117.79C195.821 118.45 194.851 119.06 193.871 119.62C192.891 120.16 191.951 120.6 191.051 120.94C190.171 121.26 189.411 121.42 188.771 121.42ZM202.071 121.78C201.311 121.78 200.681 121.43 200.181 120.73C199.701 120.01 199.461 119.08 199.461 117.94C199.461 116.88 199.721 115.83 200.241 114.79C200.781 113.75 201.491 112.75 202.371 111.79C203.251 110.83 204.211 109.95 205.251 109.15C206.291 108.33 207.331 107.62 208.371 107.02C209.431 106.42 210.401 105.95 211.281 105.61C212.161 105.27 212.861 105.1 213.381 105.1C213.661 105.1 213.891 105.16 214.071 105.28C214.251 105.38 214.341 105.57 214.341 105.85C214.341 106.03 214.271 106.2 214.131 106.36C214.151 106.36 214.171 106.36 214.191 106.36C214.631 106.36 214.851 106.62 214.851 107.14C214.851 107.32 214.781 107.69 214.641 108.25C214.501 108.79 214.341 109.47 214.161 110.29C213.981 111.11 213.821 112.02 213.681 113.02C213.541 114 213.471 115 213.471 116.02C213.471 116.88 213.801 117.31 214.461 117.31C215.201 117.31 215.951 117.14 216.711 116.8C217.471 116.46 218.211 116.05 218.931 115.57C219.651 115.07 220.311 114.58 220.911 114.1C221.511 113.6 222.021 113.18 222.441 112.84C222.861 112.5 223.161 112.33 223.341 112.33C223.501 112.33 223.641 112.38 223.761 112.48C223.881 112.58 223.941 112.74 223.941 112.96C223.941 113.16 223.741 113.52 223.341 114.04C222.941 114.56 222.411 115.15 221.751 115.81C221.091 116.47 220.351 117.11 219.531 117.73C218.711 118.35 217.871 118.86 217.011 119.26C216.151 119.66 215.331 119.86 214.551 119.86C213.951 119.86 213.401 119.68 212.901 119.32C212.421 118.94 212.031 118.3 211.731 117.4C211.451 116.5 211.311 115.26 211.311 113.68V112.93C210.331 114.55 209.301 116.03 208.221 117.37C207.161 118.71 206.101 119.78 205.041 120.58C204.001 121.38 203.011 121.78 202.071 121.78ZM212.811 107.26C212.711 107.3 212.571 107.36 212.391 107.44C211.471 107.86 210.511 108.38 209.511 109C208.531 109.62 207.571 110.31 206.631 111.07C205.711 111.83 204.881 112.62 204.141 113.44C203.401 114.26 202.811 115.09 202.371 115.93C201.931 116.77 201.711 117.59 201.711 118.39C201.711 118.65 201.761 118.85 201.861 118.99C201.981 119.13 202.181 119.2 202.461 119.2C202.861 119.2 203.381 118.95 204.021 118.45C204.661 117.93 205.361 117.25 206.121 116.41C206.901 115.57 207.681 114.64 208.461 113.62C209.241 112.6 209.981 111.57 210.681 110.53C211.401 109.49 212.021 108.53 212.541 107.65C212.621 107.51 212.711 107.38 212.811 107.26ZM223.324 121.57C223.004 121.57 222.734 121.44 222.514 121.18C222.294 120.92 222.184 120.56 222.184 120.1C222.184 119.76 222.254 119.2 222.394 118.42C222.554 117.62 222.724 116.69 222.904 115.63C223.104 114.57 223.274 113.47 223.414 112.33C223.554 111.17 223.624 110.06 223.624 109C223.624 108.48 223.754 108.1 224.014 107.86C224.294 107.6 224.604 107.47 224.944 107.47C225.264 107.47 225.504 107.67 225.664 108.07C225.824 108.47 225.854 109.27 225.754 110.47C226.674 108.43 227.684 106.79 228.784 105.55C229.904 104.29 231.014 103.39 232.114 102.85C233.214 102.29 234.204 102.01 235.084 102.01C235.664 102.01 236.084 102.13 236.344 102.37C236.624 102.59 236.764 102.84 236.764 103.12C236.764 103.5 236.604 103.8 236.284 104.02C235.984 104.22 235.454 104.46 234.694 104.74C233.814 105.08 233.004 105.48 232.264 105.94C231.544 106.38 230.854 106.96 230.194 107.68C229.554 108.4 228.924 109.32 228.304 110.44C227.684 111.54 227.064 112.9 226.444 114.52C225.824 116.14 225.164 118.09 224.464 120.37C224.344 120.81 224.184 121.12 223.984 121.3C223.804 121.48 223.584 121.57 223.324 121.57ZM246.1 105.91C246.64 104.61 247.15 103.27 247.63 101.89C248.13 100.51 248.58 99.1 248.98 97.66C249.1 97.26 249.28 96.94 249.52 96.7C249.78 96.44 250.08 96.31 250.42 96.31C250.66 96.31 250.86 96.4 251.02 96.58C251.2 96.76 251.29 97 251.29 97.3C251.29 97.68 251.14 98.34 250.84 99.28C250.56 100.22 250.2 101.41 249.76 102.85C249.34 104.29 248.91 105.95 248.47 107.83C248.05 109.69 247.69 111.75 247.39 114.01C247.11 116.27 246.97 118.68 246.97 121.24C246.97 121.8 246.85 122.26 246.61 122.62C246.37 123 246.08 123.19 245.74 123.19C245.54 123.19 245.35 123.14 245.17 123.04C244.99 122.94 244.83 122.7 244.69 122.32C244.57 121.96 244.47 121.39 244.39 120.61C244.31 119.81 244.27 118.73 244.27 117.37C244.27 116.33 244.33 115.2 244.45 113.98C243.53 115.64 242.53 117.09 241.45 118.33C240.39 119.55 239.36 120.49 238.36 121.15C237.38 121.81 236.54 122.14 235.84 122.14C234.98 122.14 234.28 121.85 233.74 121.27C233.22 120.71 232.96 119.87 232.96 118.75C232.96 117.77 233.19 116.76 233.65 115.72C234.11 114.68 234.72 113.66 235.48 112.66C236.24 111.64 237.08 110.68 238 109.78C238.92 108.88 239.84 108.09 240.76 107.41C241.7 106.71 242.57 106.17 243.37 105.79C244.17 105.39 244.82 105.19 245.32 105.19C245.52 105.19 245.7 105.26 245.86 105.4C246.02 105.54 246.1 105.71 246.1 105.91ZM245.71 106.84C245.57 106.98 245.4 107.12 245.2 107.26C245 107.4 244.78 107.55 244.54 107.71C243.66 108.33 242.69 109.05 241.63 109.87C240.59 110.67 239.59 111.55 238.63 112.51C237.69 113.45 236.92 114.44 236.32 115.48C235.72 116.52 235.42 117.59 235.42 118.69C235.42 119.17 235.66 119.41 236.14 119.41C236.8 119.41 237.52 119.1 238.3 118.48C239.1 117.84 239.92 116.96 240.76 115.84C241.6 114.7 242.44 113.37 243.28 111.85C244.12 110.31 244.93 108.64 245.71 106.84ZM257.481 121.66C257.041 121.66 256.701 121.53 256.461 121.27C256.241 121.03 256.131 120.75 256.131 120.43C256.131 120.15 256.251 119.89 256.491 119.65C256.751 119.39 257.101 119.16 257.541 118.96C258.341 118.54 259.091 118.12 259.791 117.7C260.511 117.28 261.091 116.83 261.531 116.35C261.971 115.87 262.191 115.36 262.191 114.82C262.191 114.36 262.041 114.01 261.741 113.77C261.441 113.51 261.031 113.38 260.511 113.38C260.211 113.38 259.791 113.44 259.251 113.56C258.711 113.66 258.121 113.78 257.481 113.92C256.861 114.04 256.251 114.16 255.651 114.28C255.051 114.38 254.541 114.43 254.121 114.43C253.361 114.43 252.791 114.25 252.411 113.89C252.031 113.51 251.841 113 251.841 112.36C251.841 112.04 252.031 111.56 252.411 110.92C252.791 110.28 253.291 109.57 253.911 108.79C254.551 107.99 255.251 107.19 256.011 106.39C256.771 105.59 257.541 104.85 258.321 104.17C259.121 103.49 259.861 102.94 260.541 102.52C261.241 102.1 261.821 101.89 262.281 101.89C262.741 101.89 263.091 102.04 263.331 102.34C263.571 102.64 263.691 103.02 263.691 103.48C263.691 103.84 263.631 104.15 263.511 104.41C263.391 104.65 263.141 104.84 262.761 104.98C262.401 105.12 261.841 105.2 261.081 105.22C260.301 105.84 259.471 106.55 258.591 107.35C257.731 108.13 256.941 108.94 256.221 109.78C255.521 110.6 255.011 111.39 254.691 112.15C255.351 111.93 256.151 111.74 257.091 111.58C258.051 111.4 259.021 111.31 260.001 111.31C261.541 111.31 262.681 111.66 263.421 112.36C264.181 113.04 264.561 113.94 264.561 115.06C264.561 115.78 264.331 116.53 263.871 117.31C263.431 118.07 262.851 118.78 262.131 119.44C261.411 120.1 260.641 120.63 259.821 121.03C259.001 121.45 258.221 121.66 257.481 121.66ZM284.504 123.67C284.164 123.67 283.894 123.55 283.694 123.31C283.494 123.07 283.394 122.67 283.394 122.11C283.394 121.11 283.444 120.08 283.544 119.02C283.664 117.94 283.724 116.94 283.724 116.02C283.724 113.92 283.534 112.19 283.154 110.83C282.794 109.45 282.004 108.52 280.784 108.04C280.504 107.94 280.304 107.83 280.184 107.71C280.044 107.59 279.974 107.4 279.974 107.14C279.974 106.86 280.084 106.63 280.304 106.45C280.504 106.27 280.884 106.18 281.444 106.18C281.904 106.18 282.514 106.2 283.274 106.24C284.034 106.28 284.854 106.32 285.734 106.36C286.354 104.14 287.054 102.3 287.834 100.84C288.614 99.38 289.464 98.23 290.384 97.39C291.324 96.55 292.314 95.95 293.354 95.59C294.414 95.23 295.514 95.05 296.654 95.05C297.154 95.05 297.474 95.12 297.614 95.26C297.754 95.38 297.824 95.57 297.824 95.83C297.824 96.15 297.724 96.49 297.524 96.85C297.324 97.19 296.914 97.41 296.294 97.51C294.934 97.75 293.724 98.19 292.664 98.83C291.604 99.47 290.684 100.4 289.904 101.62C289.124 102.82 288.474 104.4 287.954 106.36C289.874 106.32 291.524 106.22 292.904 106.06C294.284 105.88 295.434 105.69 296.354 105.49C297.294 105.27 298.044 105.09 298.604 104.95C299.164 104.79 299.594 104.71 299.894 104.71C300.234 104.71 300.444 104.8 300.524 104.98C300.604 105.16 300.644 105.35 300.644 105.55C300.644 105.93 300.284 106.3 299.564 106.66C298.844 107 297.894 107.31 296.714 107.59C295.554 107.85 294.274 108.06 292.874 108.22C291.474 108.38 290.094 108.46 288.734 108.46C288.514 108.46 288.294 108.46 288.074 108.46C287.874 108.46 287.664 108.46 287.444 108.46C287.404 108.6 287.374 108.75 287.354 108.91C287.154 110.07 286.954 111.3 286.754 112.6C286.574 113.88 286.404 115.14 286.244 116.38C286.104 117.6 285.994 118.71 285.914 119.71C285.834 120.71 285.794 121.51 285.794 122.11C285.794 122.61 285.674 122.99 285.434 123.25C285.194 123.53 284.884 123.67 284.504 123.67ZM285.224 108.34C284.644 108.28 284.104 108.2 283.604 108.1C283.864 108.4 284.084 108.75 284.264 109.15C284.464 109.55 284.634 109.98 284.774 110.44C284.914 109.7 285.064 109 285.224 108.34ZM299.848 121.3C298.668 121.3 297.738 120.85 297.058 119.95C296.378 119.05 296.038 117.88 296.038 116.44C296.038 115.92 296.108 115.37 296.248 114.79C296.408 114.19 296.608 113.65 296.848 113.17C296.708 113.03 296.598 112.84 296.518 112.6C296.438 112.34 296.398 112.02 296.398 111.64C296.398 110.46 296.598 109.38 296.998 108.4C297.398 107.42 297.928 106.57 298.588 105.85C299.248 105.11 299.978 104.54 300.778 104.14C301.598 103.74 302.428 103.54 303.268 103.54C304.648 103.54 305.768 104.04 306.628 105.04C307.488 106.02 307.918 107.52 307.918 109.54C307.918 110.6 307.758 111.68 307.438 112.78C307.138 113.88 306.718 114.94 306.178 115.96C305.658 116.98 305.048 117.89 304.348 118.69C303.668 119.49 302.938 120.13 302.158 120.61C301.398 121.07 300.628 121.3 299.848 121.3ZM298.828 112.15C298.948 112.31 299.008 112.52 299.008 112.78C299.008 113.08 298.948 113.38 298.828 113.68C298.728 113.98 298.618 114.39 298.498 114.91C298.378 115.43 298.318 116.17 298.318 117.13C298.318 118.09 298.698 118.57 299.458 118.57C300.298 118.57 301.078 118.24 301.798 117.58C302.518 116.9 303.158 116.03 303.718 114.97C304.278 113.91 304.708 112.78 305.008 111.58C305.328 110.36 305.488 109.21 305.488 108.13C305.488 107.43 305.358 106.94 305.098 106.66C304.838 106.36 304.368 106.21 303.688 106.21C302.988 106.21 302.258 106.45 301.498 106.93C300.758 107.39 300.138 108.02 299.638 108.82C299.138 109.62 298.888 110.52 298.888 111.52C298.888 111.74 298.868 111.95 298.828 112.15ZM312.24 121.57C311.92 121.57 311.65 121.44 311.43 121.18C311.21 120.92 311.1 120.56 311.1 120.1C311.1 119.76 311.17 119.2 311.31 118.42C311.47 117.62 311.64 116.69 311.82 115.63C312.02 114.57 312.19 113.47 312.33 112.33C312.47 111.17 312.54 110.06 312.54 109C312.54 108.48 312.67 108.1 312.93 107.86C313.21 107.6 313.52 107.47 313.86 107.47C314.18 107.47 314.42 107.67 314.58 108.07C314.74 108.47 314.77 109.27 314.67 110.47C315.59 108.43 316.6 106.79 317.7 105.55C318.82 104.29 319.93 103.39 321.03 102.85C322.13 102.29 323.12 102.01 324 102.01C324.58 102.01 325 102.13 325.26 102.37C325.54 102.59 325.68 102.84 325.68 103.12C325.68 103.5 325.52 103.8 325.2 104.02C324.9 104.22 324.37 104.46 323.61 104.74C322.73 105.08 321.92 105.48 321.18 105.94C320.46 106.38 319.77 106.96 319.11 107.68C318.47 108.4 317.84 109.32 317.22 110.44C316.6 111.54 315.98 112.9 315.36 114.52C314.74 116.14 314.08 118.09 313.38 120.37C313.26 120.81 313.1 121.12 312.9 121.3C312.72 121.48 312.5 121.57 312.24 121.57ZM26.04 161.1C26.02 161.42 25.89 161.68 25.65 161.88C25.41 162.08 25.13 162.18 24.81 162.18C24.45 162.18 24.15 162.06 23.91 161.82C23.67 161.58 23.55 161.21 23.55 160.71C23.55 159.41 23.61 158 23.73 156.48C23.85 154.94 24 153.42 24.18 151.92C24.36 150.4 24.54 149 24.72 147.72C24.06 148.66 23.34 149.7 22.56 150.84C21.8 151.98 21.02 153.11 20.22 154.23C19.42 155.35 18.64 156.38 17.88 157.32C17.12 158.24 16.43 158.99 15.81 159.57C15.19 160.13 14.68 160.41 14.28 160.41C13.54 160.41 12.9 160.12 12.36 159.54C11.82 158.94 11.55 158.19 11.55 157.29C11.55 156.93 11.59 156.44 11.67 155.82C11.75 155.18 11.84 154.51 11.94 153.81C12.04 153.11 12.13 152.46 12.21 151.86C12.29 151.24 12.33 150.78 12.33 150.48C12.33 150.2 12.3 149.96 12.24 149.76C12.2 149.54 12.1 149.43 11.94 149.43C11.7 149.43 11.37 149.7 10.95 150.24C10.53 150.76 10.06 151.43 9.54 152.25C9.04 153.07 8.52 153.94 7.98 154.86C7.46 155.78 6.97 156.65 6.51 157.47C6.05 158.27 5.66 158.9 5.34 159.36C5.08 159.8 4.84 160.12 4.62 160.32C4.4 160.52 4.13 160.62 3.81 160.62C3.43 160.62 3.08 160.42 2.76 160.02C2.46 159.62 2.31 159.13 2.31 158.55C2.31 158.21 2.37 157.68 2.49 156.96C2.61 156.22 2.76 155.41 2.94 154.53C3.14 153.65 3.33 152.79 3.51 151.95C3.71 151.09 3.88 150.36 4.02 149.76C4.18 149.08 4.38 148.62 4.62 148.38C4.86 148.14 5.12 148.02 5.4 148.02C5.78 148.02 6.08 148.16 6.3 148.44C6.54 148.7 6.66 149.11 6.66 149.67C6.66 149.77 6.6 150.04 6.48 150.48C6.36 150.9 6.21 151.42 6.03 152.04C5.87 152.64 5.69 153.27 5.49 153.93C5.31 154.59 5.16 155.2 5.04 155.76C5.48 155.02 5.94 154.22 6.42 153.36C6.92 152.5 7.42 151.65 7.92 150.81C8.42 149.95 8.92 149.17 9.42 148.47C9.92 147.75 10.41 147.18 10.89 146.76C11.37 146.34 11.83 146.13 12.27 146.13C12.79 146.13 13.27 146.29 13.71 146.61C14.17 146.93 14.54 147.36 14.82 147.9C15.1 148.44 15.24 149.04 15.24 149.7C15.24 150.16 15.16 150.81 15 151.65C14.84 152.47 14.67 153.36 14.49 154.32C14.33 155.28 14.23 156.19 14.19 157.05C14.19 157.25 14.25 157.35 14.37 157.35C14.47 157.35 14.59 157.28 14.73 157.14C15.31 156.5 15.95 155.73 16.65 154.83C17.35 153.91 18.06 152.94 18.78 151.92C19.52 150.9 20.25 149.9 20.97 148.92C21.69 147.92 22.36 147.02 22.98 146.22C23.62 145.4 24.18 144.75 24.66 144.27C25.16 143.79 25.55 143.55 25.83 143.55C26.43 143.55 26.89 143.72 27.21 144.06C27.53 144.4 27.69 144.97 27.69 145.77C27.69 146.41 27.64 147.24 27.54 148.26C27.46 149.28 27.35 150.39 27.21 151.59C27.09 152.79 26.95 154 26.79 155.22C26.65 156.42 26.51 157.54 26.37 158.58C26.23 159.6 26.12 160.44 26.04 161.1ZM36.0886 162.3C34.9086 162.3 33.9786 161.85 33.2986 160.95C32.6186 160.05 32.2786 158.88 32.2786 157.44C32.2786 156.92 32.3486 156.37 32.4886 155.79C32.6486 155.19 32.8486 154.65 33.0886 154.17C32.9486 154.03 32.8386 153.84 32.7586 153.6C32.6786 153.34 32.6386 153.02 32.6386 152.64C32.6386 151.46 32.8386 150.38 33.2386 149.4C33.6386 148.42 34.1686 147.57 34.8286 146.85C35.4886 146.11 36.2186 145.54 37.0186 145.14C37.8386 144.74 38.6686 144.54 39.5086 144.54C40.8886 144.54 42.0086 145.04 42.8686 146.04C43.7286 147.02 44.1586 148.52 44.1586 150.54C44.1586 151.6 43.9986 152.68 43.6786 153.78C43.3786 154.88 42.9586 155.94 42.4186 156.96C41.8986 157.98 41.2886 158.89 40.5886 159.69C39.9086 160.49 39.1786 161.13 38.3986 161.61C37.6386 162.07 36.8686 162.3 36.0886 162.3ZM35.0686 153.15C35.1886 153.31 35.2486 153.52 35.2486 153.78C35.2486 154.08 35.1886 154.38 35.0686 154.68C34.9686 154.98 34.8586 155.39 34.7386 155.91C34.6186 156.43 34.5586 157.17 34.5586 158.13C34.5586 159.09 34.9386 159.57 35.6986 159.57C36.5386 159.57 37.3186 159.24 38.0386 158.58C38.7586 157.9 39.3986 157.03 39.9586 155.97C40.5186 154.91 40.9486 153.78 41.2486 152.58C41.5686 151.36 41.7286 150.21 41.7286 149.13C41.7286 148.43 41.5986 147.94 41.3386 147.66C41.0786 147.36 40.6086 147.21 39.9286 147.21C39.2286 147.21 38.4986 147.45 37.7386 147.93C36.9986 148.39 36.3786 149.02 35.8786 149.82C35.3786 150.62 35.1286 151.52 35.1286 152.52C35.1286 152.74 35.1086 152.95 35.0686 153.15ZM48.48 162.57C48.16 162.57 47.89 162.44 47.67 162.18C47.45 161.92 47.34 161.56 47.34 161.1C47.34 160.76 47.41 160.2 47.55 159.42C47.71 158.62 47.88 157.69 48.06 156.63C48.26 155.57 48.43 154.47 48.57 153.33C48.71 152.17 48.78 151.06 48.78 150C48.78 149.48 48.91 149.1 49.17 148.86C49.45 148.6 49.76 148.47 50.1 148.47C50.42 148.47 50.66 148.67 50.82 149.07C50.98 149.47 51.01 150.27 50.91 151.47C51.83 149.43 52.84 147.79 53.94 146.55C55.06 145.29 56.17 144.39 57.27 143.85C58.37 143.29 59.36 143.01 60.24 143.01C60.82 143.01 61.24 143.13 61.5 143.37C61.78 143.59 61.92 143.84 61.92 144.12C61.92 144.5 61.76 144.8 61.44 145.02C61.14 145.22 60.61 145.46 59.85 145.74C58.97 146.08 58.16 146.48 57.42 146.94C56.7 147.38 56.01 147.96 55.35 148.68C54.71 149.4 54.08 150.32 53.46 151.44C52.84 152.54 52.22 153.9 51.6 155.52C50.98 157.14 50.32 159.09 49.62 161.37C49.5 161.81 49.34 162.12 49.14 162.3C48.96 162.48 48.74 162.57 48.48 162.57ZM72.4784 149.07C72.4784 149.71 72.2784 150.34 71.8784 150.96C71.4784 151.56 70.9484 152.14 70.2884 152.7C69.6284 153.24 68.8984 153.75 68.0984 154.23C67.2984 154.71 66.4984 155.13 65.6984 155.49C64.8984 155.85 64.1684 156.14 63.5084 156.36C63.3484 157.14 63.2684 157.83 63.2684 158.43C63.2684 158.81 63.3584 159.08 63.5384 159.24C63.7184 159.4 63.9984 159.48 64.3784 159.48C65.2184 159.48 66.1084 159.33 67.0484 159.03C67.9884 158.73 68.9484 158.34 69.9284 157.86C70.9084 157.38 71.8484 156.87 72.7484 156.33C73.6484 155.79 74.4684 155.28 75.2084 154.8C75.9684 154.32 76.5984 153.93 77.0984 153.63C77.5984 153.33 77.9284 153.18 78.0884 153.18C78.3284 153.18 78.5084 153.26 78.6284 153.42C78.7684 153.56 78.8384 153.73 78.8384 153.93C78.8384 154.09 78.5884 154.4 78.0884 154.86C77.6084 155.32 76.9584 155.86 76.1384 156.48C75.3184 157.08 74.3984 157.7 73.3784 158.34C72.3584 158.98 71.2984 159.58 70.1984 160.14C69.1184 160.7 68.0684 161.15 67.0484 161.49C66.0484 161.83 65.1484 162 64.3484 162C63.3084 162 62.4984 161.61 61.9184 160.83C61.3384 160.05 61.0484 158.84 61.0484 157.2C61.0484 156.1 61.1884 154.99 61.4684 153.87C61.7684 152.75 62.1684 151.68 62.6684 150.66C63.1884 149.62 63.7584 148.7 64.3784 147.9C65.0184 147.08 65.6884 146.44 66.3884 145.98C67.0884 145.5 67.7684 145.26 68.4284 145.26C69.6884 145.26 70.6784 145.61 71.3984 146.31C72.1184 147.01 72.4784 147.93 72.4784 149.07ZM64.1384 154.05C64.7584 153.67 65.3984 153.27 66.0584 152.85C66.7184 152.43 67.3284 152 67.8884 151.56C68.4484 151.12 68.8984 150.66 69.2384 150.18C69.5984 149.68 69.7784 149.17 69.7784 148.65C69.7784 147.91 69.3784 147.54 68.5784 147.54C68.0784 147.54 67.5484 147.86 66.9884 148.5C66.4484 149.12 65.9284 149.93 65.4284 150.93C64.9284 151.93 64.4984 152.97 64.1384 154.05ZM102.164 146.91C102.704 145.61 103.214 144.27 103.694 142.89C104.194 141.51 104.644 140.1 105.044 138.66C105.164 138.26 105.344 137.94 105.584 137.7C105.844 137.44 106.144 137.31 106.484 137.31C106.724 137.31 106.924 137.4 107.084 137.58C107.264 137.76 107.354 138 107.354 138.3C107.354 138.68 107.204 139.34 106.904 140.28C106.624 141.22 106.264 142.41 105.824 143.85C105.404 145.29 104.974 146.95 104.534 148.83C104.114 150.69 103.754 152.75 103.454 155.01C103.174 157.27 103.034 159.68 103.034 162.24C103.034 162.8 102.914 163.26 102.674 163.62C102.434 164 102.144 164.19 101.804 164.19C101.604 164.19 101.414 164.14 101.234 164.04C101.054 163.94 100.894 163.7 100.754 163.32C100.634 162.96 100.534 162.39 100.454 161.61C100.374 160.81 100.334 159.73 100.334 158.37C100.334 157.33 100.394 156.2 100.514 154.98C99.5943 156.64 98.5943 158.09 97.5143 159.33C96.4543 160.55 95.4243 161.49 94.4243 162.15C93.4443 162.81 92.6043 163.14 91.9043 163.14C91.0443 163.14 90.3443 162.85 89.8043 162.27C89.2843 161.71 89.0243 160.87 89.0243 159.75C89.0243 158.77 89.2543 157.76 89.7143 156.72C90.1743 155.68 90.7843 154.66 91.5443 153.66C92.3043 152.64 93.1443 151.68 94.0643 150.78C94.9843 149.88 95.9043 149.09 96.8243 148.41C97.7643 147.71 98.6343 147.17 99.4343 146.79C100.234 146.39 100.884 146.19 101.384 146.19C101.584 146.19 101.764 146.26 101.924 146.4C102.084 146.54 102.164 146.71 102.164 146.91ZM101.774 147.84C101.634 147.98 101.464 148.12 101.264 148.26C101.064 148.4 100.844 148.55 100.604 148.71C99.7243 149.33 98.7543 150.05 97.6943 150.87C96.6543 151.67 95.6543 152.55 94.6943 153.51C93.7543 154.45 92.9843 155.44 92.3843 156.48C91.7843 157.52 91.4843 158.59 91.4843 159.69C91.4843 160.17 91.7243 160.41 92.2043 160.41C92.8643 160.41 93.5843 160.1 94.3643 159.48C95.1643 158.84 95.9843 157.96 96.8243 156.84C97.6643 155.7 98.5043 154.37 99.3443 152.85C100.184 151.31 100.994 149.64 101.774 147.84ZM145.463 148.08C145.463 148.32 145.113 148.59 144.413 148.89C143.733 149.19 142.813 149.5 141.653 149.82C140.493 150.12 139.193 150.42 137.753 150.72C136.333 151.02 134.873 151.29 133.373 151.53C132.833 153.39 132.303 155.27 131.783 157.17C131.263 159.05 130.813 160.82 130.433 162.48C130.353 162.8 130.193 163.03 129.953 163.17C129.733 163.33 129.483 163.41 129.203 163.41C128.883 163.41 128.613 163.32 128.393 163.14C128.173 162.98 128.063 162.76 128.063 162.48C128.063 161.98 128.163 161.26 128.363 160.32C128.563 159.38 128.823 158.29 129.143 157.05C129.483 155.81 129.833 154.49 130.193 153.09C129.313 154.45 128.343 155.73 127.283 156.93C126.223 158.13 125.113 159.19 123.953 160.11C122.793 161.03 121.603 161.75 120.383 162.27C119.183 162.79 117.973 163.05 116.753 163.05C114.853 163.05 113.463 162.55 112.583 161.55C111.703 160.55 111.263 159.05 111.263 157.05C111.263 155.93 111.393 154.81 111.653 153.69C111.933 152.55 112.303 151.47 112.763 150.45C113.243 149.43 113.773 148.53 114.353 147.75C114.933 146.95 115.533 146.32 116.153 145.86C116.793 145.4 117.403 145.17 117.983 145.17C119.103 145.17 119.933 145.48 120.473 146.1C121.013 146.72 121.283 147.49 121.283 148.41C121.283 149.37 121.063 150.28 120.623 151.14C120.183 152 119.593 152.78 118.853 153.48C118.113 154.18 117.303 154.78 116.423 155.28C115.543 155.76 114.673 156.09 113.813 156.27C113.793 156.45 113.783 156.63 113.783 156.81C113.783 158.23 114.043 159.21 114.563 159.75C115.103 160.27 115.953 160.53 117.113 160.53C118.233 160.53 119.413 160.19 120.653 159.51C121.913 158.83 123.173 157.87 124.433 156.63C125.713 155.39 126.933 153.94 128.093 152.28C127.233 152.38 126.433 152.46 125.693 152.52C124.973 152.56 124.343 152.58 123.803 152.58C123.243 152.58 122.853 152.5 122.633 152.34C122.433 152.18 122.333 151.91 122.333 151.53C122.333 151.37 122.433 151.17 122.633 150.93C122.853 150.69 123.093 150.56 123.353 150.54C124.513 150.44 125.613 150.33 126.653 150.21C127.713 150.09 128.723 149.96 129.683 149.82C130.203 148.94 130.703 148.02 131.183 147.06C131.663 146.08 132.113 145.08 132.533 144.06C132.913 142.72 133.293 141.52 133.673 140.46C134.073 139.4 134.483 138.57 134.903 137.97C135.343 137.35 135.803 137.04 136.283 137.04C136.503 137.04 136.693 137.14 136.853 137.34C137.033 137.54 137.123 137.82 137.123 138.18C137.123 138.44 136.983 139.1 136.703 140.16C136.423 141.2 136.043 142.51 135.563 144.09C135.103 145.65 134.603 147.35 134.063 149.19C137.223 148.69 139.663 148.24 141.383 147.84C143.103 147.44 144.193 147.24 144.653 147.24C144.913 147.24 145.113 147.33 145.253 147.51C145.393 147.67 145.463 147.86 145.463 148.08ZM114.143 154.02C114.923 153.6 115.673 153.06 116.393 152.4C117.113 151.74 117.703 151.05 118.163 150.33C118.643 149.61 118.883 148.94 118.883 148.32C118.883 147.76 118.623 147.48 118.103 147.48C117.683 147.48 117.213 147.8 116.693 148.44C116.193 149.06 115.713 149.87 115.253 150.87C114.793 151.87 114.423 152.92 114.143 154.02ZM144.386 162.78C143.626 162.78 142.996 162.43 142.496 161.73C142.016 161.01 141.776 160.08 141.776 158.94C141.776 157.88 142.036 156.83 142.556 155.79C143.096 154.75 143.806 153.75 144.686 152.79C145.566 151.83 146.526 150.95 147.566 150.15C148.606 149.33 149.646 148.62 150.686 148.02C151.746 147.42 152.716 146.95 153.596 146.61C154.476 146.27 155.176 146.1 155.696 146.1C155.976 146.1 156.206 146.16 156.386 146.28C156.566 146.38 156.656 146.57 156.656 146.85C156.656 147.03 156.586 147.2 156.446 147.36C156.466 147.36 156.486 147.36 156.506 147.36C156.946 147.36 157.166 147.62 157.166 148.14C157.166 148.32 157.096 148.69 156.956 149.25C156.816 149.79 156.656 150.47 156.476 151.29C156.296 152.11 156.136 153.02 155.996 154.02C155.856 155 155.786 156 155.786 157.02C155.786 157.88 156.116 158.31 156.776 158.31C157.516 158.31 158.266 158.14 159.026 157.8C159.786 157.46 160.526 157.05 161.246 156.57C161.966 156.07 162.626 155.58 163.226 155.1C163.826 154.6 164.336 154.18 164.756 153.84C165.176 153.5 165.476 153.33 165.656 153.33C165.816 153.33 165.956 153.38 166.076 153.48C166.196 153.58 166.256 153.74 166.256 153.96C166.256 154.16 166.056 154.52 165.656 155.04C165.256 155.56 164.726 156.15 164.066 156.81C163.406 157.47 162.666 158.11 161.846 158.73C161.026 159.35 160.186 159.86 159.326 160.26C158.466 160.66 157.646 160.86 156.866 160.86C156.266 160.86 155.716 160.68 155.216 160.32C154.736 159.94 154.346 159.3 154.046 158.4C153.766 157.5 153.626 156.26 153.626 154.68V153.93C152.646 155.55 151.616 157.03 150.536 158.37C149.476 159.71 148.416 160.78 147.356 161.58C146.316 162.38 145.326 162.78 144.386 162.78ZM155.126 148.26C155.026 148.3 154.886 148.36 154.706 148.44C153.786 148.86 152.826 149.38 151.826 150C150.846 150.62 149.886 151.31 148.946 152.07C148.026 152.83 147.196 153.62 146.456 154.44C145.716 155.26 145.126 156.09 144.686 156.93C144.246 157.77 144.026 158.59 144.026 159.39C144.026 159.65 144.076 159.85 144.176 159.99C144.296 160.13 144.496 160.2 144.776 160.2C145.176 160.2 145.696 159.95 146.336 159.45C146.976 158.93 147.676 158.25 148.436 157.41C149.216 156.57 149.996 155.64 150.776 154.62C151.556 153.6 152.296 152.57 152.996 151.53C153.716 150.49 154.336 149.53 154.856 148.65C154.936 148.51 155.026 148.38 155.126 148.26ZM165.568 162.15C165.188 162.15 164.848 162.01 164.548 161.73C164.248 161.43 164.098 160.97 164.098 160.35C164.098 159.91 164.158 159.3 164.278 158.52C164.398 157.72 164.558 156.85 164.758 155.91C164.958 154.97 165.168 154.04 165.388 153.12C165.628 152.18 165.868 151.34 166.108 150.6C166.348 149.86 166.558 149.31 166.738 148.95C166.898 148.67 167.048 148.49 167.188 148.41C167.348 148.33 167.498 148.29 167.638 148.29C167.918 148.29 168.158 148.38 168.358 148.56C168.578 148.74 168.688 149.09 168.688 149.61C168.688 149.91 168.628 150.41 168.508 151.11C168.408 151.79 168.268 152.59 168.088 153.51C167.928 154.41 167.748 155.34 167.548 156.3C167.368 157.24 167.188 158.14 167.008 159C166.828 159.86 166.688 160.58 166.588 161.16C166.508 161.48 166.368 161.73 166.168 161.91C165.988 162.07 165.788 162.15 165.568 162.15ZM168.508 145.56C168.048 145.56 167.608 145.42 167.188 145.14C166.788 144.86 166.588 144.41 166.588 143.79C166.588 143.27 166.708 142.85 166.948 142.53C167.208 142.21 167.508 141.98 167.848 141.84C168.208 141.68 168.518 141.6 168.778 141.6C169.038 141.6 169.328 141.66 169.648 141.78C169.988 141.88 170.278 142.08 170.518 142.38C170.758 142.66 170.878 143.08 170.878 143.64C170.878 144.02 170.748 144.36 170.488 144.66C170.228 144.94 169.908 145.16 169.528 145.32C169.168 145.48 168.828 145.56 168.508 145.56ZM178.511 163.2C176.971 163.2 175.761 162.7 174.881 161.7C174.021 160.68 173.591 159.26 173.591 157.44C173.591 156.32 173.741 155.01 174.041 153.51C174.361 151.99 174.761 150.39 175.241 148.71C175.741 147.01 176.281 145.33 176.861 143.67C177.441 142.01 178.001 140.47 178.541 139.05C179.101 137.61 179.591 136.41 180.011 135.45C180.251 134.91 180.591 134.64 181.031 134.64C181.631 134.64 181.931 135.01 181.931 135.75C181.931 135.99 181.821 136.48 181.601 137.22C181.381 137.96 181.091 138.88 180.731 139.98C180.371 141.06 179.981 142.26 179.561 143.58C179.141 144.9 178.711 146.26 178.271 147.66C177.851 149.04 177.461 150.41 177.101 151.77C176.741 153.11 176.451 154.37 176.231 155.55C176.011 156.73 175.901 157.74 175.901 158.58C175.901 159.12 176.041 159.55 176.321 159.87C176.621 160.17 177.021 160.32 177.521 160.32C178.441 160.32 179.361 160.14 180.281 159.78C181.221 159.4 182.121 158.94 182.981 158.4C183.841 157.84 184.621 157.29 185.321 156.75C186.041 156.19 186.651 155.73 187.151 155.37C187.651 154.99 188.001 154.8 188.201 154.8C188.641 154.8 188.861 155.04 188.861 155.52C188.861 155.68 188.701 155.98 188.381 156.42C188.061 156.84 187.631 157.34 187.091 157.92C186.551 158.5 185.921 159.1 185.201 159.72C184.501 160.32 183.761 160.89 182.981 161.43C182.221 161.95 181.451 162.37 180.671 162.69C179.911 163.03 179.191 163.2 178.511 163.2ZM191.651 162.66C191.211 162.66 190.871 162.53 190.631 162.27C190.411 162.03 190.301 161.75 190.301 161.43C190.301 161.15 190.421 160.89 190.661 160.65C190.921 160.39 191.271 160.16 191.711 159.96C192.511 159.54 193.261 159.12 193.961 158.7C194.681 158.28 195.261 157.83 195.701 157.35C196.141 156.87 196.361 156.36 196.361 155.82C196.361 155.36 196.211 155.01 195.911 154.77C195.611 154.51 195.201 154.38 194.681 154.38C194.381 154.38 193.961 154.44 193.421 154.56C192.881 154.66 192.291 154.78 191.651 154.92C191.031 155.04 190.421 155.16 189.821 155.28C189.221 155.38 188.711 155.43 188.291 155.43C187.531 155.43 186.961 155.25 186.581 154.89C186.201 154.51 186.011 154 186.011 153.36C186.011 153.04 186.201 152.56 186.581 151.92C186.961 151.28 187.461 150.57 188.081 149.79C188.721 148.99 189.421 148.19 190.181 147.39C190.941 146.59 191.711 145.85 192.491 145.17C193.291 144.49 194.031 143.94 194.711 143.52C195.411 143.1 195.991 142.89 196.451 142.89C196.911 142.89 197.261 143.04 197.501 143.34C197.741 143.64 197.861 144.02 197.861 144.48C197.861 144.84 197.801 145.15 197.681 145.41C197.561 145.65 197.311 145.84 196.931 145.98C196.571 146.12 196.011 146.2 195.251 146.22C194.471 146.84 193.641 147.55 192.761 148.35C191.901 149.13 191.111 149.94 190.391 150.78C189.691 151.6 189.181 152.39 188.861 153.15C189.521 152.93 190.321 152.74 191.261 152.58C192.221 152.4 193.191 152.31 194.171 152.31C195.711 152.31 196.851 152.66 197.591 153.36C198.351 154.04 198.731 154.94 198.731 156.06C198.731 156.78 198.501 157.53 198.041 158.31C197.601 159.07 197.021 159.78 196.301 160.44C195.581 161.1 194.811 161.63 193.991 162.03C193.171 162.45 192.391 162.66 191.651 162.66Z" fill="black"/>
<path d="M351.24 102.436C361.475 96.3115 372.044 90.5086 380.761 82.244C388.752 74.6677 396.731 64.9883 400.178 54.3541C405.374 38.3225 398.981 24.6909 394.642 9.59835" stroke="black" stroke-width="3"/>
<path d="M381.817 26.3994C386.171 23.7941 388.037 19.1547 390.446 14.99C391.634 12.9372 392.035 10.2644 393.573 8.47399" stroke="black" stroke-width="3"/>
<path d="M394.51 8.07987C395.053 8.84138 395.749 9.31676 396.556 9.79215C398.969 11.2126 401.537 12.3115 404.18 13.2195C408.605 14.7393 412.84 15.9784 417.5 16.3205" stroke="black" stroke-width="3"/>
</svg>
