<svg width="734" height="460" viewBox="0 0 734 460" fill="none" xmlns="http://www.w3.org/2000/svg">
<path d="M0 30C0 13.4315 13.4315 0 30 0H704C720.569 0 734 13.4315 734 30V430C734 446.569 720.569 460 704 460H30C13.4314 460 0 446.569 0 430V30Z" fill="#D9D9D9"/>
<rect x="12" y="14" width="707" height="434" rx="20" fill="white"/>
<path d="M12 77H303C314.046 77 323 85.9543 323 97V448H32C20.9543 448 12 439.046 12 428V77Z" fill="#964141"/>
<path d="M344 97C344 85.9543 352.954 77 364 77H508C519.046 77 528 85.9543 528 97V448H344V97Z" fill="#647746"/>
<path d="M544 97C544 85.9543 552.954 77 564 77H719V428C719 439.046 710.046 448 699 448H544V97Z" fill="#465B77"/>
</svg>
