<svg width="463" height="98" viewBox="0 0 463 98" fill="none" xmlns="http://www.w3.org/2000/svg">
<path d="M2.52 39.91C2.18 39.91 1.91 39.79 1.71 39.55C1.53 39.31 1.44 38.85 1.44 38.17C1.44 37.19 1.51 36.05 1.65 34.75C1.79 33.45 1.98 32.07 2.22 30.61C2.48 29.15 2.76 27.69 3.06 26.23C3.38 24.77 3.71 23.38 4.05 22.06C4.41 20.74 4.76 19.57 5.1 18.55C5.44 17.51 5.75 16.69 6.03 16.09C6.33 15.49 6.59 15.19 6.81 15.19C7.19 15.19 7.49 15.3 7.71 15.52C7.95 15.74 8.07 16.07 8.07 16.51C8.07 17.07 7.9 17.98 7.56 19.24C7.22 20.48 6.78 22.1 6.24 24.1C6.74 23.18 7.28 22.22 7.86 21.22C8.44 20.22 9.05 19.25 9.69 18.31C10.33 17.35 10.97 16.49 11.61 15.73C12.27 14.97 12.91 14.36 13.53 13.9C14.15 13.44 14.75 13.21 15.33 13.21C15.95 13.21 16.5 13.41 16.98 13.81C17.46 14.19 17.83 14.71 18.09 15.37C18.37 16.01 18.51 16.73 18.51 17.53C18.51 19.19 18.23 20.8 17.67 22.36C17.11 23.9 16.33 25.29 15.33 26.53C14.35 27.75 13.19 28.72 11.85 29.44C10.53 30.16 9.1 30.52 7.56 30.52C6.98 30.52 6.46 30.49 6 30.43C5.54 30.37 5.14 30.3 4.8 30.22C4.56 31.54 4.33 32.9 4.11 34.3C3.89 35.7 3.67 37.19 3.45 38.77C3.39 39.19 3.29 39.48 3.15 39.64C3.01 39.82 2.8 39.91 2.52 39.91ZM15.87 15.49C15.45 15.49 14.95 15.73 14.37 16.21C13.81 16.69 13.2 17.33 12.54 18.13C11.9 18.91 11.25 19.78 10.59 20.74C9.93 21.68 9.29 22.64 8.67 23.62C8.05 24.6 7.48 25.51 6.96 26.35C6.46 27.19 6.05 27.89 5.73 28.45C7.29 28.41 8.66 28.1 9.84 27.52C11.02 26.92 12.03 26.16 12.87 25.24C13.71 24.3 14.39 23.29 14.91 22.21C15.45 21.11 15.84 20.05 16.08 19.03C16.32 17.99 16.44 17.09 16.44 16.33C16.44 15.77 16.25 15.49 15.87 15.49ZM22.6988 31.57C22.3788 31.57 22.1088 31.44 21.8888 31.18C21.6688 30.92 21.5588 30.56 21.5588 30.1C21.5588 29.76 21.6288 29.2 21.7688 28.42C21.9288 27.62 22.0988 26.69 22.2788 25.63C22.4788 24.57 22.6488 23.47 22.7888 22.33C22.9288 21.17 22.9988 20.06 22.9988 19C22.9988 18.48 23.1288 18.1 23.3888 17.86C23.6688 17.6 23.9788 17.47 24.3188 17.47C24.6388 17.47 24.8788 17.67 25.0388 18.07C25.1988 18.47 25.2288 19.27 25.1288 20.47C26.0488 18.43 27.0588 16.79 28.1588 15.55C29.2788 14.29 30.3888 13.39 31.4888 12.85C32.5888 12.29 33.5788 12.01 34.4588 12.01C35.0388 12.01 35.4588 12.13 35.7188 12.37C35.9988 12.59 36.1388 12.84 36.1388 13.12C36.1388 13.5 35.9788 13.8 35.6588 14.02C35.3588 14.22 34.8288 14.46 34.0688 14.74C33.1888 15.08 32.3788 15.48 31.6388 15.94C30.9188 16.38 30.2288 16.96 29.5688 17.68C28.9288 18.4 28.2988 19.32 27.6788 20.44C27.0588 21.54 26.4388 22.9 25.8188 24.52C25.1988 26.14 24.5388 28.09 23.8388 30.37C23.7188 30.81 23.5588 31.12 23.3588 31.3C23.1788 31.48 22.9588 31.57 22.6988 31.57ZM46.6971 18.07C46.6971 18.71 46.4971 19.34 46.0971 19.96C45.6971 20.56 45.1671 21.14 44.5071 21.7C43.8471 22.24 43.1171 22.75 42.3171 23.23C41.5171 23.71 40.7171 24.13 39.9171 24.49C39.1171 24.85 38.3871 25.14 37.7271 25.36C37.5671 26.14 37.4871 26.83 37.4871 27.43C37.4871 27.81 37.5771 28.08 37.7571 28.24C37.9371 28.4 38.2171 28.48 38.5971 28.48C39.4371 28.48 40.3271 28.33 41.2671 28.03C42.2071 27.73 43.1671 27.34 44.1471 26.86C45.1271 26.38 46.0671 25.87 46.9671 25.33C47.8671 24.79 48.6871 24.28 49.4271 23.8C50.1871 23.32 50.8171 22.93 51.3171 22.63C51.8171 22.33 52.1471 22.18 52.3071 22.18C52.5471 22.18 52.7271 22.26 52.8471 22.42C52.9871 22.56 53.0571 22.73 53.0571 22.93C53.0571 23.09 52.8071 23.4 52.3071 23.86C51.8271 24.32 51.1771 24.86 50.3571 25.48C49.5371 26.08 48.6171 26.7 47.5971 27.34C46.5771 27.98 45.5171 28.58 44.4171 29.14C43.3371 29.7 42.2871 30.15 41.2671 30.49C40.2671 30.83 39.3671 31 38.5671 31C37.5271 31 36.7171 30.61 36.1371 29.83C35.5571 29.05 35.2671 27.84 35.2671 26.2C35.2671 25.1 35.4071 23.99 35.6871 22.87C35.9871 21.75 36.3871 20.68 36.8871 19.66C37.4071 18.62 37.9771 17.7 38.5971 16.9C39.2371 16.08 39.9071 15.44 40.6071 14.98C41.3071 14.5 41.9871 14.26 42.6471 14.26C43.9071 14.26 44.8971 14.61 45.6171 15.31C46.3371 16.01 46.6971 16.93 46.6971 18.07ZM38.3571 23.05C38.9771 22.67 39.6171 22.27 40.2771 21.85C40.9371 21.43 41.5471 21 42.1071 20.56C42.6671 20.12 43.1171 19.66 43.4571 19.18C43.8171 18.68 43.9971 18.17 43.9971 17.65C43.9971 16.91 43.5971 16.54 42.7971 16.54C42.2971 16.54 41.7671 16.86 41.2071 17.5C40.6671 18.12 40.1471 18.93 39.6471 19.93C39.1471 20.93 38.7171 21.97 38.3571 23.05ZM72.649 33.25C71.869 33.25 71.369 33.15 71.149 32.95C70.929 32.77 70.819 32.58 70.819 32.38C70.819 32.16 70.909 31.94 71.089 31.72C71.269 31.52 71.479 31.35 71.719 31.21C72.159 30.93 72.589 30.63 73.009 30.31C73.449 29.99 73.809 29.66 74.089 29.32C74.369 28.96 74.509 28.61 74.509 28.27C74.509 27.99 74.299 27.7 73.879 27.4C73.459 27.08 72.929 26.74 72.289 26.38C71.669 26.02 71.039 25.62 70.399 25.18C69.779 24.74 69.259 24.26 68.839 23.74C68.419 23.2 68.209 22.6 68.209 21.94C68.209 21.62 68.249 21.29 68.329 20.95C67.569 21.37 66.809 21.8 66.049 22.24C65.309 22.66 64.589 23.06 63.889 23.44C63.889 24.42 63.689 25.39 63.289 26.35C62.889 27.29 62.359 28.15 61.699 28.93C61.039 29.71 60.299 30.33 59.479 30.79C58.679 31.25 57.869 31.48 57.049 31.48C56.109 31.48 55.389 31.25 54.889 30.79C54.389 30.31 54.139 29.73 54.139 29.05C54.139 28.17 54.379 27.42 54.859 26.8C55.339 26.16 56.049 25.57 56.989 25.03C57.409 24.77 57.999 24.42 58.759 23.98C59.539 23.52 60.419 23.02 61.399 22.48C61.199 22.12 60.789 21.94 60.169 21.94C59.929 21.94 59.539 22.02 58.999 22.18C58.459 22.34 57.839 22.54 57.139 22.78C56.459 23.02 55.759 23.27 55.039 23.53C54.339 23.77 53.689 23.97 53.089 24.13C52.509 24.29 52.049 24.37 51.709 24.37C50.969 24.37 50.399 24.18 49.999 23.8C49.619 23.4 49.429 22.9 49.429 22.3C49.429 21.78 49.659 21.15 50.119 20.41C50.599 19.67 51.209 18.9 51.949 18.1C52.709 17.3 53.509 16.55 54.349 15.85C55.189 15.15 55.989 14.58 56.749 14.14C57.509 13.7 58.139 13.48 58.639 13.48C59.059 13.48 59.379 13.63 59.599 13.93C59.839 14.23 59.959 14.62 59.959 15.1C59.959 15.52 59.779 15.87 59.419 16.15C59.079 16.43 58.459 16.58 57.559 16.6C57.179 16.86 56.689 17.23 56.089 17.71C55.509 18.17 54.929 18.66 54.349 19.18C53.789 19.7 53.309 20.19 52.909 20.65C52.529 21.11 52.339 21.46 52.339 21.7C52.339 21.86 52.439 21.94 52.639 21.94C52.839 21.94 53.209 21.84 53.749 21.64C54.309 21.42 54.959 21.18 55.699 20.92C56.459 20.66 57.239 20.43 58.039 20.23C58.839 20.01 59.579 19.9 60.259 19.9C61.759 19.9 62.799 20.38 63.379 21.34C64.439 20.76 65.519 20.16 66.619 19.54C67.739 18.92 68.819 18.31 69.859 17.71C70.599 16.73 71.469 15.83 72.469 15.01C73.489 14.17 74.509 13.5 75.529 13C76.549 12.5 77.449 12.25 78.229 12.25C78.569 12.25 78.829 12.35 79.009 12.55C79.209 12.73 79.309 12.94 79.309 13.18C79.309 13.36 79.249 13.56 79.129 13.78C79.029 14 78.749 14.31 78.289 14.71C77.829 15.09 77.059 15.63 75.979 16.33C75.379 16.73 74.729 17.15 74.029 17.59C73.329 18.01 72.589 18.45 71.809 18.91C71.469 19.39 71.189 19.88 70.969 20.38C70.769 20.86 70.669 21.34 70.669 21.82C70.669 22.24 70.879 22.63 71.299 22.99C71.719 23.33 72.239 23.68 72.859 24.04C73.479 24.4 74.089 24.79 74.689 25.21C75.309 25.63 75.829 26.11 76.249 26.65C76.669 27.19 76.879 27.82 76.879 28.54C76.879 29.06 76.749 29.6 76.489 30.16C76.229 30.7 75.889 31.2 75.469 31.66C75.069 32.14 74.619 32.52 74.119 32.8C73.619 33.1 73.129 33.25 72.649 33.25ZM61.039 25.06C60.339 25.46 59.719 25.82 59.179 26.14C58.639 26.44 58.209 26.69 57.889 26.89C57.549 27.11 57.259 27.35 57.019 27.61C56.799 27.85 56.689 28.16 56.689 28.54C56.689 28.72 56.739 28.88 56.839 29.02C56.939 29.14 57.089 29.2 57.289 29.2C57.769 29.2 58.249 28.99 58.729 28.57C59.209 28.13 59.649 27.59 60.049 26.95C60.449 26.31 60.779 25.68 61.039 25.06ZM101.622 31.66C101.182 31.66 100.842 31.53 100.602 31.27C100.382 31.03 100.272 30.75 100.272 30.43C100.272 30.15 100.392 29.89 100.632 29.65C100.892 29.39 101.242 29.16 101.682 28.96C102.482 28.54 103.232 28.12 103.932 27.7C104.652 27.28 105.232 26.83 105.672 26.35C106.112 25.87 106.332 25.36 106.332 24.82C106.332 24.36 106.182 24.01 105.882 23.77C105.582 23.51 105.172 23.38 104.652 23.38C104.352 23.38 103.932 23.44 103.392 23.56C102.852 23.66 102.262 23.78 101.622 23.92C101.002 24.04 100.392 24.16 99.7917 24.28C99.1917 24.38 98.6817 24.43 98.2617 24.43C97.5017 24.43 96.9317 24.25 96.5517 23.89C96.1717 23.51 95.9817 23 95.9817 22.36C95.9817 22.04 96.1717 21.56 96.5517 20.92C96.9317 20.28 97.4317 19.57 98.0517 18.79C98.6917 17.99 99.3917 17.19 100.152 16.39C100.912 15.59 101.682 14.85 102.462 14.17C103.262 13.49 104.002 12.94 104.682 12.52C105.382 12.1 105.962 11.89 106.422 11.89C106.882 11.89 107.232 12.04 107.472 12.34C107.712 12.64 107.832 13.02 107.832 13.48C107.832 13.84 107.772 14.15 107.652 14.41C107.532 14.65 107.282 14.84 106.902 14.98C106.542 15.12 105.982 15.2 105.222 15.22C104.442 15.84 103.612 16.55 102.732 17.35C101.872 18.13 101.082 18.94 100.362 19.78C99.6617 20.6 99.1517 21.39 98.8317 22.15C99.4917 21.93 100.292 21.74 101.232 21.58C102.192 21.4 103.162 21.31 104.142 21.31C105.682 21.31 106.822 21.66 107.562 22.36C108.322 23.04 108.702 23.94 108.702 25.06C108.702 25.78 108.472 26.53 108.012 27.31C107.572 28.07 106.992 28.78 106.272 29.44C105.552 30.1 104.782 30.63 103.962 31.03C103.142 31.45 102.362 31.66 101.622 31.66ZM112.002 39.91C111.662 39.91 111.392 39.79 111.192 39.55C111.012 39.31 110.922 38.85 110.922 38.17C110.922 37.19 110.992 36.05 111.132 34.75C111.272 33.45 111.462 32.07 111.702 30.61C111.962 29.15 112.242 27.69 112.542 26.23C112.862 24.77 113.192 23.38 113.532 22.06C113.892 20.74 114.242 19.57 114.582 18.55C114.922 17.51 115.232 16.69 115.512 16.09C115.812 15.49 116.072 15.19 116.292 15.19C116.672 15.19 116.972 15.3 117.192 15.52C117.432 15.74 117.552 16.07 117.552 16.51C117.552 17.07 117.382 17.98 117.042 19.24C116.702 20.48 116.262 22.1 115.722 24.1C116.222 23.18 116.762 22.22 117.342 21.22C117.922 20.22 118.532 19.25 119.172 18.31C119.812 17.35 120.452 16.49 121.092 15.73C121.752 14.97 122.392 14.36 123.012 13.9C123.632 13.44 124.232 13.21 124.812 13.21C125.432 13.21 125.982 13.41 126.462 13.81C126.942 14.19 127.312 14.71 127.572 15.37C127.852 16.01 127.992 16.73 127.992 17.53C127.992 19.19 127.712 20.8 127.152 22.36C126.592 23.9 125.812 25.29 124.812 26.53C123.832 27.75 122.672 28.72 121.332 29.44C120.012 30.16 118.582 30.52 117.042 30.52C116.462 30.52 115.942 30.49 115.482 30.43C115.022 30.37 114.622 30.3 114.282 30.22C114.042 31.54 113.812 32.9 113.592 34.3C113.372 35.7 113.152 37.19 112.932 38.77C112.872 39.19 112.772 39.48 112.632 39.64C112.492 39.82 112.282 39.91 112.002 39.91ZM125.352 15.49C124.932 15.49 124.432 15.73 123.852 16.21C123.292 16.69 122.682 17.33 122.022 18.13C121.382 18.91 120.732 19.78 120.072 20.74C119.412 21.68 118.772 22.64 118.152 23.62C117.532 24.6 116.962 25.51 116.442 26.35C115.942 27.19 115.532 27.89 115.212 28.45C116.772 28.41 118.142 28.1 119.322 27.52C120.502 26.92 121.512 26.16 122.352 25.24C123.192 24.3 123.872 23.29 124.392 22.21C124.932 21.11 125.322 20.05 125.562 19.03C125.802 17.99 125.922 17.09 125.922 16.33C125.922 15.77 125.732 15.49 125.352 15.49ZM132.608 31.78C131.848 31.78 131.218 31.43 130.718 30.73C130.238 30.01 129.998 29.08 129.998 27.94C129.998 26.88 130.258 25.83 130.778 24.79C131.318 23.75 132.028 22.75 132.908 21.79C133.788 20.83 134.748 19.95 135.788 19.15C136.828 18.33 137.868 17.62 138.908 17.02C139.968 16.42 140.938 15.95 141.818 15.61C142.698 15.27 143.398 15.1 143.918 15.1C144.198 15.1 144.428 15.16 144.608 15.28C144.788 15.38 144.878 15.57 144.878 15.85C144.878 16.03 144.808 16.2 144.668 16.36C144.688 16.36 144.708 16.36 144.728 16.36C145.168 16.36 145.388 16.62 145.388 17.14C145.388 17.32 145.318 17.69 145.178 18.25C145.038 18.79 144.878 19.47 144.698 20.29C144.518 21.11 144.358 22.02 144.218 23.02C144.078 24 144.008 25 144.008 26.02C144.008 26.88 144.338 27.31 144.998 27.31C145.738 27.31 146.488 27.14 147.248 26.8C148.008 26.46 148.748 26.05 149.468 25.57C150.188 25.07 150.848 24.58 151.448 24.1C152.048 23.6 152.558 23.18 152.978 22.84C153.398 22.5 153.698 22.33 153.878 22.33C154.038 22.33 154.178 22.38 154.298 22.48C154.418 22.58 154.478 22.74 154.478 22.96C154.478 23.16 154.278 23.52 153.878 24.04C153.478 24.56 152.948 25.15 152.288 25.81C151.628 26.47 150.888 27.11 150.068 27.73C149.248 28.35 148.408 28.86 147.548 29.26C146.688 29.66 145.868 29.86 145.088 29.86C144.488 29.86 143.938 29.68 143.438 29.32C142.958 28.94 142.568 28.3 142.268 27.4C141.988 26.5 141.848 25.26 141.848 23.68V22.93C140.868 24.55 139.838 26.03 138.758 27.37C137.698 28.71 136.638 29.78 135.578 30.58C134.538 31.38 133.548 31.78 132.608 31.78ZM143.348 17.26C143.248 17.3 143.108 17.36 142.928 17.44C142.008 17.86 141.048 18.38 140.048 19C139.068 19.62 138.108 20.31 137.168 21.07C136.248 21.83 135.418 22.62 134.678 23.44C133.938 24.26 133.348 25.09 132.908 25.93C132.468 26.77 132.248 27.59 132.248 28.39C132.248 28.65 132.298 28.85 132.398 28.99C132.518 29.13 132.718 29.2 132.998 29.2C133.398 29.2 133.918 28.95 134.558 28.45C135.198 27.93 135.898 27.25 136.658 26.41C137.438 25.57 138.218 24.64 138.998 23.62C139.778 22.6 140.518 21.57 141.218 20.53C141.938 19.49 142.558 18.53 143.078 17.65C143.158 17.51 143.248 17.38 143.348 17.26ZM157.453 31.42C156.473 31.42 155.623 31.2 154.903 30.76C154.203 30.3 153.663 29.71 153.283 28.99C152.903 28.27 152.713 27.53 152.713 26.77C152.713 25.17 152.993 23.71 153.553 22.39C154.113 21.05 154.813 19.87 155.653 18.85C156.513 17.81 157.393 16.93 158.293 16.21C159.213 15.49 160.043 14.95 160.783 14.59C161.543 14.21 162.083 14.02 162.403 14.02C163.043 14.02 163.363 14.34 163.363 14.98C163.363 15.28 163.163 15.63 162.763 16.03C162.363 16.41 161.853 16.86 161.233 17.38C160.613 17.9 159.953 18.49 159.253 19.15C158.553 19.79 157.893 20.52 157.273 21.34C156.653 22.14 156.143 23.04 155.743 24.04C155.343 25.02 155.143 26.1 155.143 27.28C155.143 28.48 155.633 29.08 156.613 29.08C157.513 29.08 158.433 28.91 159.373 28.57C160.333 28.23 161.273 27.79 162.193 27.25C163.133 26.69 164.033 26.11 164.893 25.51C165.753 24.91 166.533 24.34 167.233 23.8C167.933 23.24 168.523 22.79 169.003 22.45C169.483 22.11 169.823 21.94 170.023 21.94C170.423 21.94 170.623 22.16 170.623 22.6C170.623 22.94 170.393 23.39 169.933 23.95C169.473 24.51 168.853 25.12 168.073 25.78C167.293 26.44 166.423 27.11 165.463 27.79C164.503 28.45 163.533 29.06 162.553 29.62C161.573 30.16 160.633 30.6 159.733 30.94C158.853 31.26 158.093 31.42 157.453 31.42ZM181.463 18.07C181.463 18.71 181.263 19.34 180.863 19.96C180.463 20.56 179.933 21.14 179.273 21.7C178.613 22.24 177.883 22.75 177.083 23.23C176.283 23.71 175.483 24.13 174.683 24.49C173.883 24.85 173.153 25.14 172.493 25.36C172.333 26.14 172.253 26.83 172.253 27.43C172.253 27.81 172.343 28.08 172.523 28.24C172.703 28.4 172.983 28.48 173.363 28.48C174.203 28.48 175.093 28.33 176.033 28.03C176.973 27.73 177.933 27.34 178.913 26.86C179.893 26.38 180.833 25.87 181.733 25.33C182.633 24.79 183.453 24.28 184.193 23.8C184.953 23.32 185.583 22.93 186.083 22.63C186.583 22.33 186.913 22.18 187.073 22.18C187.313 22.18 187.493 22.26 187.613 22.42C187.753 22.56 187.823 22.73 187.823 22.93C187.823 23.09 187.573 23.4 187.073 23.86C186.593 24.32 185.943 24.86 185.123 25.48C184.303 26.08 183.383 26.7 182.363 27.34C181.343 27.98 180.283 28.58 179.183 29.14C178.103 29.7 177.053 30.15 176.033 30.49C175.033 30.83 174.133 31 173.333 31C172.293 31 171.483 30.61 170.903 29.83C170.323 29.05 170.033 27.84 170.033 26.2C170.033 25.1 170.173 23.99 170.453 22.87C170.753 21.75 171.153 20.68 171.653 19.66C172.173 18.62 172.743 17.7 173.363 16.9C174.003 16.08 174.673 15.44 175.373 14.98C176.073 14.5 176.753 14.26 177.413 14.26C178.673 14.26 179.663 14.61 180.383 15.31C181.103 16.01 181.463 16.93 181.463 18.07ZM173.123 23.05C173.743 22.67 174.383 22.27 175.043 21.85C175.703 21.43 176.313 21 176.873 20.56C177.433 20.12 177.883 19.66 178.223 19.18C178.583 18.68 178.763 18.17 178.763 17.65C178.763 16.91 178.363 16.54 177.563 16.54C177.063 16.54 176.533 16.86 175.973 17.5C175.433 18.12 174.913 18.93 174.413 19.93C173.913 20.93 173.483 21.97 173.123 23.05ZM202.779 31.03C201.919 31.03 201.309 30.86 200.949 30.52C200.589 30.18 200.409 29.68 200.409 29.02C200.409 25.7 201.009 22.23 202.209 18.61C203.409 14.97 205.089 11.32 207.249 7.66C207.529 7.2 207.749 6.91 207.909 6.79C208.089 6.67 208.299 6.61 208.539 6.61C208.819 6.61 209.069 6.71 209.289 6.91C209.509 7.11 209.619 7.38 209.619 7.72C209.619 7.9 209.439 8.39 209.079 9.19C208.719 9.97 208.259 10.98 207.699 12.22C207.139 13.46 206.539 14.85 205.899 16.39C205.279 17.91 204.689 19.5 204.129 21.16C203.569 22.82 203.119 24.47 202.779 26.11C203.239 25.43 203.789 24.7 204.429 23.92C205.089 23.14 205.789 22.36 206.529 21.58C207.269 20.8 208.019 20.09 208.779 19.45C209.559 18.81 210.309 18.3 211.029 17.92C211.749 17.54 212.409 17.35 213.009 17.35C213.789 17.35 214.469 17.68 215.049 18.34C215.649 18.98 215.949 19.95 215.949 21.25C215.949 22.35 215.649 23.48 215.049 24.64C214.449 25.78 213.569 26.84 212.409 27.82C211.269 28.78 209.889 29.56 208.269 30.16C206.649 30.74 204.819 31.03 202.779 31.03ZM202.899 28.75C204.559 28.75 206.069 28.47 207.429 27.91C208.789 27.35 209.949 26.64 210.909 25.78C211.889 24.9 212.639 23.99 213.159 23.05C213.699 22.09 213.969 21.22 213.969 20.44C213.969 19.88 213.779 19.6 213.399 19.6C212.939 19.6 212.349 19.82 211.629 20.26C210.909 20.7 210.129 21.28 209.289 22C208.469 22.72 207.649 23.5 206.829 24.34C206.009 25.16 205.249 25.96 204.549 26.74C203.869 27.52 203.319 28.19 202.899 28.75ZM220.235 31.78C219.475 31.78 218.845 31.43 218.345 30.73C217.865 30.01 217.625 29.08 217.625 27.94C217.625 26.88 217.885 25.83 218.405 24.79C218.945 23.75 219.655 22.75 220.535 21.79C221.415 20.83 222.375 19.95 223.415 19.15C224.455 18.33 225.495 17.62 226.535 17.02C227.595 16.42 228.565 15.95 229.445 15.61C230.325 15.27 231.025 15.1 231.545 15.1C231.825 15.1 232.055 15.16 232.235 15.28C232.415 15.38 232.505 15.57 232.505 15.85C232.505 16.03 232.435 16.2 232.295 16.36C232.315 16.36 232.335 16.36 232.355 16.36C232.795 16.36 233.015 16.62 233.015 17.14C233.015 17.32 232.945 17.69 232.805 18.25C232.665 18.79 232.505 19.47 232.325 20.29C232.145 21.11 231.985 22.02 231.845 23.02C231.705 24 231.635 25 231.635 26.02C231.635 26.88 231.965 27.31 232.625 27.31C233.365 27.31 234.115 27.14 234.875 26.8C235.635 26.46 236.375 26.05 237.095 25.57C237.815 25.07 238.475 24.58 239.075 24.1C239.675 23.6 240.185 23.18 240.605 22.84C241.025 22.5 241.325 22.33 241.505 22.33C241.665 22.33 241.805 22.38 241.925 22.48C242.045 22.58 242.105 22.74 242.105 22.96C242.105 23.16 241.905 23.52 241.505 24.04C241.105 24.56 240.575 25.15 239.915 25.81C239.255 26.47 238.515 27.11 237.695 27.73C236.875 28.35 236.035 28.86 235.175 29.26C234.315 29.66 233.495 29.86 232.715 29.86C232.115 29.86 231.565 29.68 231.065 29.32C230.585 28.94 230.195 28.3 229.895 27.4C229.615 26.5 229.475 25.26 229.475 23.68V22.93C228.495 24.55 227.465 26.03 226.385 27.37C225.325 28.71 224.265 29.78 223.205 30.58C222.165 31.38 221.175 31.78 220.235 31.78ZM230.975 17.26C230.875 17.3 230.735 17.36 230.555 17.44C229.635 17.86 228.675 18.38 227.675 19C226.695 19.62 225.735 20.31 224.795 21.07C223.875 21.83 223.045 22.62 222.305 23.44C221.565 24.26 220.975 25.09 220.535 25.93C220.095 26.77 219.875 27.59 219.875 28.39C219.875 28.65 219.925 28.85 220.025 28.99C220.145 29.13 220.345 29.2 220.625 29.2C221.025 29.2 221.545 28.95 222.185 28.45C222.825 27.93 223.525 27.25 224.285 26.41C225.065 25.57 225.845 24.64 226.625 23.62C227.405 22.6 228.145 21.57 228.845 20.53C229.565 19.49 230.185 18.53 230.705 17.65C230.785 17.51 230.875 17.38 230.975 17.26ZM241.488 31.57C241.168 31.57 240.898 31.44 240.678 31.18C240.458 30.92 240.348 30.56 240.348 30.1C240.348 29.76 240.418 29.2 240.558 28.42C240.718 27.62 240.888 26.69 241.068 25.63C241.268 24.57 241.438 23.47 241.578 22.33C241.718 21.17 241.788 20.06 241.788 19C241.788 18.48 241.918 18.1 242.178 17.86C242.458 17.6 242.768 17.47 243.108 17.47C243.428 17.47 243.668 17.67 243.828 18.07C243.988 18.47 244.018 19.27 243.918 20.47C244.838 18.43 245.848 16.79 246.948 15.55C248.068 14.29 249.178 13.39 250.278 12.85C251.378 12.29 252.368 12.01 253.248 12.01C253.828 12.01 254.248 12.13 254.508 12.37C254.788 12.59 254.928 12.84 254.928 13.12C254.928 13.5 254.768 13.8 254.448 14.02C254.148 14.22 253.618 14.46 252.858 14.74C251.978 15.08 251.168 15.48 250.428 15.94C249.708 16.38 249.018 16.96 248.358 17.68C247.718 18.4 247.088 19.32 246.468 20.44C245.848 21.54 245.228 22.9 244.608 24.52C243.988 26.14 243.328 28.09 242.628 30.37C242.508 30.81 242.348 31.12 242.148 31.3C241.968 31.48 241.748 31.57 241.488 31.57ZM266.121 21.4C265.581 21.36 265.331 21.01 265.371 20.35C265.391 20.19 265.501 20 265.701 19.78C265.901 19.54 266.131 19.41 266.391 19.39C267.011 19.33 267.771 19.24 268.671 19.12C269.591 18.98 270.601 18.82 271.701 18.64C271.901 17.66 272.141 16.63 272.421 15.55C272.701 14.47 273.011 13.42 273.351 12.4C273.691 11.36 274.051 10.42 274.431 9.58C274.811 8.74 275.211 8.08 275.631 7.6C275.851 7.38 276.051 7.23 276.231 7.15C276.411 7.05 276.571 7 276.711 7C276.991 7 277.211 7.12 277.371 7.36C277.551 7.6 277.641 7.87 277.641 8.17C277.641 8.33 277.611 8.49 277.551 8.65C277.151 9.77 276.721 11.15 276.261 12.79C275.801 14.43 275.311 16.22 274.791 18.16C276.631 17.86 278.471 17.54 280.311 17.2C282.151 16.86 283.731 16.55 285.051 16.27C285.431 16.11 285.721 16.14 285.921 16.36C286.141 16.58 286.251 16.8 286.251 17.02C286.251 17.3 286.171 17.51 286.011 17.65C285.871 17.79 285.721 17.91 285.561 18.01L285.531 18.04C285.131 18.2 284.531 18.39 283.731 18.61C282.931 18.81 282.011 19.03 280.971 19.27C279.931 19.49 278.821 19.71 277.641 19.93C276.481 20.15 275.331 20.35 274.191 20.53C273.731 22.29 273.261 24.1 272.781 25.96C272.321 27.8 271.861 29.61 271.401 31.39C271.201 32.11 270.971 32.56 270.711 32.74C270.471 32.94 270.211 33.04 269.931 33.04C269.611 33.04 269.331 32.92 269.091 32.68C268.871 32.44 268.841 31.95 269.001 31.21L271.191 20.98C269.991 21.16 268.931 21.29 268.011 21.37C267.111 21.45 266.481 21.46 266.121 21.4ZM286.987 31.3C285.807 31.3 284.877 30.85 284.197 29.95C283.517 29.05 283.177 27.88 283.177 26.44C283.177 25.92 283.247 25.37 283.387 24.79C283.547 24.19 283.747 23.65 283.987 23.17C283.847 23.03 283.737 22.84 283.657 22.6C283.577 22.34 283.537 22.02 283.537 21.64C283.537 20.46 283.737 19.38 284.137 18.4C284.537 17.42 285.067 16.57 285.727 15.85C286.387 15.11 287.117 14.54 287.917 14.14C288.737 13.74 289.567 13.54 290.407 13.54C291.787 13.54 292.907 14.04 293.767 15.04C294.627 16.02 295.057 17.52 295.057 19.54C295.057 20.6 294.897 21.68 294.577 22.78C294.277 23.88 293.857 24.94 293.317 25.96C292.797 26.98 292.187 27.89 291.487 28.69C290.807 29.49 290.077 30.13 289.297 30.61C288.537 31.07 287.767 31.3 286.987 31.3ZM285.967 22.15C286.087 22.31 286.147 22.52 286.147 22.78C286.147 23.08 286.087 23.38 285.967 23.68C285.867 23.98 285.757 24.39 285.637 24.91C285.517 25.43 285.457 26.17 285.457 27.13C285.457 28.09 285.837 28.57 286.597 28.57C287.437 28.57 288.217 28.24 288.937 27.58C289.657 26.9 290.297 26.03 290.857 24.97C291.417 23.91 291.847 22.78 292.147 21.58C292.467 20.36 292.627 19.21 292.627 18.13C292.627 17.43 292.497 16.94 292.237 16.66C291.977 16.36 291.507 16.21 290.827 16.21C290.127 16.21 289.397 16.45 288.637 16.93C287.897 17.39 287.277 18.02 286.777 18.82C286.277 19.62 286.027 20.52 286.027 21.52C286.027 21.74 286.007 21.95 285.967 22.15ZM4.5 79.92C2.96 79.92 1.83 79.77 1.11 79.47C0.39 79.17 0.03 78.77 0.03 78.27C0.03 77.95 0.13 77.69 0.33 77.49C0.55 77.29 0.82 77.19 1.14 77.19C1.48 77.19 1.97 77.24 2.61 77.34C3.25 77.46 3.88 77.52 4.5 77.52C6.56 77.52 8.25 76.91 9.57 75.69C10.89 74.47 11.9 72.6 12.6 70.08C13.3 67.54 13.77 64.3 14.01 60.36C13.41 61.58 12.73 62.8 11.97 64.02C11.23 65.22 10.43 66.32 9.57 67.32C8.73 68.3 7.86 69.09 6.96 69.69C6.06 70.29 5.17 70.59 4.29 70.59C3.45 70.59 2.83 70.38 2.43 69.96C2.05 69.54 1.86 68.85 1.86 67.89C1.86 67.03 2.1 66.12 2.58 65.16C3.06 64.18 3.7 63.2 4.5 62.22C5.3 61.24 6.18 60.31 7.14 59.43C8.1 58.53 9.06 57.74 10.02 57.06C11 56.36 11.91 55.81 12.75 55.41C13.59 55.01 14.27 54.81 14.79 54.81C15.31 54.81 15.71 54.99 15.99 55.35C16.27 55.71 16.41 56.39 16.41 57.39C16.41 59.73 16.33 62.01 16.17 64.23C16.03 66.43 15.74 68.48 15.3 70.38C14.86 72.28 14.2 73.94 13.32 75.36C12.46 76.8 11.31 77.92 9.87 78.72C8.43 79.52 6.64 79.92 4.5 79.92ZM13.47 57.42C12.47 58.06 11.44 58.78 10.38 59.58C9.32 60.38 8.33 61.23 7.41 62.13C6.51 63.03 5.78 63.96 5.22 64.92C4.66 65.88 4.38 66.84 4.38 67.8C4.38 68.1 4.57 68.25 4.95 68.25C5.25 68.25 5.66 68.02 6.18 67.56C6.72 67.08 7.32 66.45 7.98 65.67C8.64 64.87 9.31 64 9.99 63.06C10.69 62.1 11.34 61.13 11.94 60.15C12.54 59.17 13.05 58.26 13.47 57.42ZM33.66 59.07C33.66 59.71 33.46 60.34 33.06 60.96C32.66 61.56 32.13 62.14 31.47 62.7C30.81 63.24 30.08 63.75 29.28 64.23C28.48 64.71 27.68 65.13 26.88 65.49C26.08 65.85 25.35 66.14 24.69 66.36C24.53 67.14 24.45 67.83 24.45 68.43C24.45 68.81 24.54 69.08 24.72 69.24C24.9 69.4 25.18 69.48 25.56 69.48C26.4 69.48 27.29 69.33 28.23 69.03C29.17 68.73 30.13 68.34 31.11 67.86C32.09 67.38 33.03 66.87 33.93 66.33C34.83 65.79 35.65 65.28 36.39 64.8C37.15 64.32 37.78 63.93 38.28 63.63C38.78 63.33 39.11 63.18 39.27 63.18C39.51 63.18 39.69 63.26 39.81 63.42C39.95 63.56 40.02 63.73 40.02 63.93C40.02 64.09 39.77 64.4 39.27 64.86C38.79 65.32 38.14 65.86 37.32 66.48C36.5 67.08 35.58 67.7 34.56 68.34C33.54 68.98 32.48 69.58 31.38 70.14C30.3 70.7 29.25 71.15 28.23 71.49C27.23 71.83 26.33 72 25.53 72C24.49 72 23.68 71.61 23.1 70.83C22.52 70.05 22.23 68.84 22.23 67.2C22.23 66.1 22.37 64.99 22.65 63.87C22.95 62.75 23.35 61.68 23.85 60.66C24.37 59.62 24.94 58.7 25.56 57.9C26.2 57.08 26.87 56.44 27.57 55.98C28.27 55.5 28.95 55.26 29.61 55.26C30.87 55.26 31.86 55.61 32.58 56.31C33.3 57.01 33.66 57.93 33.66 59.07ZM25.32 64.05C25.94 63.67 26.58 63.27 27.24 62.85C27.9 62.43 28.51 62 29.07 61.56C29.63 61.12 30.08 60.66 30.42 60.18C30.78 59.68 30.96 59.17 30.96 58.65C30.96 57.91 30.56 57.54 29.76 57.54C29.26 57.54 28.73 57.86 28.17 58.5C27.63 59.12 27.11 59.93 26.61 60.93C26.11 61.93 25.68 62.97 25.32 64.05ZM40.4466 71.31C39.8666 71.31 39.3466 70.98 38.8866 70.32C38.4266 69.66 38.1966 68.81 38.1966 67.77C38.1966 66.63 38.3466 65.41 38.6466 64.11C38.9666 62.81 39.3566 61.49 39.8166 60.15C40.2766 58.79 40.7266 57.48 41.1666 56.22C41.2666 55.96 41.4066 55.77 41.5866 55.65C41.7866 55.51 42.0866 55.44 42.4866 55.44C43.2066 55.44 43.5666 55.79 43.5666 56.49C43.5666 56.65 43.4866 57.01 43.3266 57.57C43.1666 58.13 42.9566 58.82 42.6966 59.64C42.4566 60.46 42.2066 61.35 41.9466 62.31C41.6866 63.25 41.4566 64.2 41.2566 65.16C41.0566 66.12 40.9166 67.01 40.8366 67.83C41.1566 67.49 41.5166 66.97 41.9166 66.27C42.3366 65.57 42.7866 64.78 43.2666 63.9C43.7466 63 44.2466 62.1 44.7666 61.2C45.2866 60.28 45.8066 59.44 46.3266 58.68C46.8666 57.9 47.3866 57.28 47.8866 56.82C48.4066 56.34 48.8866 56.1 49.3266 56.1C49.9666 56.1 50.5066 56.3 50.9466 56.7C51.4066 57.08 51.7566 57.76 51.9966 58.74C52.2566 59.7 52.3866 61.06 52.3866 62.82C52.3866 63.76 52.4766 64.64 52.6566 65.46C52.8566 66.28 53.1666 66.94 53.5866 67.44C54.0266 67.92 54.5866 68.16 55.2666 68.16C56.2866 68.16 57.1966 67.98 57.9966 67.62C58.7966 67.24 59.4866 66.82 60.0666 66.36C60.6666 65.88 61.1666 65.46 61.5666 65.1C61.9666 64.72 62.2766 64.53 62.4966 64.53C62.9566 64.53 63.1866 64.77 63.1866 65.25C63.1866 65.45 63.0366 65.77 62.7366 66.21C62.4566 66.63 62.0566 67.11 61.5366 67.65C61.0366 68.17 60.4566 68.68 59.7966 69.18C59.1566 69.66 58.4666 70.06 57.7266 70.38C57.0066 70.7 56.2766 70.86 55.5366 70.86C54.1566 70.86 53.0266 70.59 52.1466 70.05C51.2866 69.51 50.6466 68.62 50.2266 67.38C49.8266 66.14 49.6266 64.48 49.6266 62.4C49.6266 61.26 49.5566 60.43 49.4166 59.91C49.2966 59.37 49.0666 59.01 48.7266 58.83C48.4866 59.25 48.1766 59.85 47.7966 60.63C47.4166 61.39 46.9766 62.24 46.4766 63.18C45.9966 64.12 45.4866 65.07 44.9466 66.03C44.4266 66.97 43.8966 67.84 43.3566 68.64C42.8166 69.44 42.2966 70.09 41.7966 70.59C41.2966 71.07 40.8466 71.31 40.4466 71.31ZM72.1823 58.59C72.1823 59.87 71.5723 61.11 70.3523 62.31C69.1323 63.51 67.2723 64.61 64.7723 65.61C64.6923 66.11 64.6523 66.53 64.6523 66.87C64.6523 67.67 64.7523 68.25 64.9523 68.61C65.1723 68.97 65.5323 69.15 66.0323 69.15C66.7723 69.15 67.6023 68.92 68.5223 68.46C69.4423 67.98 70.3923 67.37 71.3723 66.63C72.3523 65.87 73.3123 65.07 74.2523 64.23C75.2123 63.39 76.0923 62.6 76.8923 61.86C77.6923 61.1 78.3723 60.49 78.9323 60.03C79.4923 59.55 79.8723 59.31 80.0723 59.31C80.3523 59.31 80.5823 59.44 80.7623 59.7C80.9423 59.94 81.0323 60.27 81.0323 60.69C81.0323 61.21 81.0023 61.81 80.9423 62.49C80.8823 63.15 80.8123 63.85 80.7323 64.59C81.2523 63.13 81.9023 61.86 82.6823 60.78C83.4823 59.68 84.3323 58.77 85.2323 58.05C86.1323 57.33 87.0123 56.79 87.8723 56.43C88.7323 56.07 89.4723 55.89 90.0923 55.89C90.6723 55.89 91.1023 56 91.3823 56.22C91.6623 56.44 91.8023 56.7 91.8023 57C91.8023 57.28 91.6723 57.54 91.4123 57.78C91.1723 58 90.6123 58.29 89.7323 58.65C88.7123 59.05 87.7523 59.52 86.8523 60.06C85.9723 60.6 85.1523 61.34 84.3923 62.28C83.6323 63.2 82.9523 64.43 82.3523 65.97C81.7523 67.51 81.2423 69.49 80.8223 71.91C80.7423 72.39 80.6023 72.73 80.4023 72.93C80.2023 73.15 79.9623 73.26 79.6823 73.26C79.4823 73.26 79.2823 73.17 79.0823 72.99C78.8823 72.83 78.7223 72.44 78.6023 71.82C78.4823 71.18 78.4223 70.18 78.4223 68.82C78.4223 67.9 78.4623 66.9 78.5423 65.82C78.6423 64.74 78.7823 63.61 78.9623 62.43C78.0423 63.43 77.0223 64.48 75.9023 65.58C74.7823 66.66 73.6223 67.67 72.4223 68.61C71.2223 69.53 70.0423 70.28 68.8823 70.86C67.7223 71.44 66.6423 71.73 65.6423 71.73C64.5823 71.73 63.7323 71.36 63.0923 70.62C62.4523 69.88 62.1323 68.78 62.1323 67.32C62.1323 65.64 62.3523 64.1 62.7923 62.7C63.2323 61.3 63.8023 60.09 64.5023 59.07C65.2023 58.03 65.9523 57.23 66.7523 56.67C67.5523 56.11 68.3223 55.83 69.0623 55.83C70.0623 55.83 70.8323 56.09 71.3723 56.61C71.9123 57.11 72.1823 57.77 72.1823 58.59ZM65.2523 63.42C65.8523 63 66.5023 62.53 67.2023 62.01C67.9223 61.49 68.5323 60.96 69.0323 60.42C69.5523 59.86 69.8123 59.35 69.8123 58.89C69.8123 58.61 69.7423 58.41 69.6023 58.29C69.4623 58.17 69.2223 58.11 68.8823 58.11C68.3423 58.11 67.8423 58.38 67.3823 58.92C66.9223 59.44 66.5123 60.11 66.1523 60.93C65.7923 61.73 65.4923 62.56 65.2523 63.42ZM93.2918 72.78C92.5318 72.78 91.9018 72.43 91.4018 71.73C90.9218 71.01 90.6818 70.08 90.6818 68.94C90.6818 67.88 90.9418 66.83 91.4618 65.79C92.0018 64.75 92.7118 63.75 93.5918 62.79C94.4718 61.83 95.4318 60.95 96.4718 60.15C97.5118 59.33 98.5518 58.62 99.5918 58.02C100.652 57.42 101.622 56.95 102.502 56.61C103.382 56.27 104.082 56.1 104.602 56.1C104.882 56.1 105.112 56.16 105.292 56.28C105.472 56.38 105.562 56.57 105.562 56.85C105.562 57.03 105.492 57.2 105.352 57.36C105.372 57.36 105.392 57.36 105.412 57.36C105.852 57.36 106.072 57.62 106.072 58.14C106.072 58.32 106.002 58.69 105.862 59.25C105.722 59.79 105.562 60.47 105.382 61.29C105.202 62.11 105.042 63.02 104.902 64.02C104.762 65 104.692 66 104.692 67.02C104.692 67.88 105.022 68.31 105.682 68.31C106.422 68.31 107.172 68.14 107.932 67.8C108.692 67.46 109.432 67.05 110.152 66.57C110.872 66.07 111.532 65.58 112.132 65.1C112.732 64.6 113.242 64.18 113.662 63.84C114.082 63.5 114.382 63.33 114.562 63.33C114.722 63.33 114.862 63.38 114.982 63.48C115.102 63.58 115.162 63.74 115.162 63.96C115.162 64.16 114.962 64.52 114.562 65.04C114.162 65.56 113.632 66.15 112.972 66.81C112.312 67.47 111.572 68.11 110.752 68.73C109.932 69.35 109.092 69.86 108.232 70.26C107.372 70.66 106.552 70.86 105.772 70.86C105.172 70.86 104.622 70.68 104.122 70.32C103.642 69.94 103.252 69.3 102.952 68.4C102.672 67.5 102.532 66.26 102.532 64.68V63.93C101.552 65.55 100.522 67.03 99.4418 68.37C98.3818 69.71 97.3218 70.78 96.2618 71.58C95.2218 72.38 94.2318 72.78 93.2918 72.78ZM104.032 58.26C103.932 58.3 103.792 58.36 103.612 58.44C102.692 58.86 101.732 59.38 100.732 60C99.7518 60.62 98.7918 61.31 97.8518 62.07C96.9318 62.83 96.1018 63.62 95.3618 64.44C94.6218 65.26 94.0318 66.09 93.5918 66.93C93.1518 67.77 92.9318 68.59 92.9318 69.39C92.9318 69.65 92.9818 69.85 93.0818 69.99C93.2018 70.13 93.4018 70.2 93.6818 70.2C94.0818 70.2 94.6018 69.95 95.2418 69.45C95.8818 68.93 96.5818 68.25 97.3418 67.41C98.1218 66.57 98.9018 65.64 99.6818 64.62C100.462 63.6 101.202 62.57 101.902 61.53C102.622 60.49 103.242 59.53 103.762 58.65C103.842 58.51 103.932 58.38 104.032 58.26ZM110.994 62.4C110.454 62.36 110.204 62.01 110.244 61.35C110.264 61.19 110.374 61 110.574 60.78C110.774 60.54 111.004 60.41 111.264 60.39C111.884 60.33 112.644 60.24 113.544 60.12C114.464 59.98 115.474 59.82 116.574 59.64C116.774 58.66 117.014 57.63 117.294 56.55C117.574 55.47 117.884 54.42 118.224 53.4C118.564 52.36 118.924 51.42 119.304 50.58C119.684 49.74 120.084 49.08 120.504 48.6C120.724 48.38 120.924 48.23 121.104 48.15C121.284 48.05 121.444 48 121.584 48C121.864 48 122.084 48.12 122.244 48.36C122.424 48.6 122.514 48.87 122.514 49.17C122.514 49.33 122.484 49.49 122.424 49.65C122.024 50.77 121.594 52.15 121.134 53.79C120.674 55.43 120.184 57.22 119.664 59.16C121.504 58.86 123.344 58.54 125.184 58.2C127.024 57.86 128.604 57.55 129.924 57.27C130.304 57.11 130.594 57.14 130.794 57.36C131.014 57.58 131.124 57.8 131.124 58.02C131.124 58.3 131.044 58.51 130.884 58.65C130.744 58.79 130.594 58.91 130.434 59.01L130.404 59.04C130.004 59.2 129.404 59.39 128.604 59.61C127.804 59.81 126.884 60.03 125.844 60.27C124.804 60.49 123.694 60.71 122.514 60.93C121.354 61.15 120.204 61.35 119.064 61.53C118.604 63.29 118.134 65.1 117.654 66.96C117.194 68.8 116.734 70.61 116.274 72.39C116.074 73.11 115.844 73.56 115.584 73.74C115.344 73.94 115.084 74.04 114.804 74.04C114.484 74.04 114.204 73.92 113.964 73.68C113.744 73.44 113.714 72.95 113.874 72.21L116.064 61.98C114.864 62.16 113.804 62.29 112.884 62.37C111.984 62.45 111.354 62.46 110.994 62.4ZM139.832 59.07C139.832 59.71 139.632 60.34 139.232 60.96C138.832 61.56 138.302 62.14 137.642 62.7C136.982 63.24 136.252 63.75 135.452 64.23C134.652 64.71 133.852 65.13 133.052 65.49C132.252 65.85 131.522 66.14 130.862 66.36C130.702 67.14 130.622 67.83 130.622 68.43C130.622 68.81 130.712 69.08 130.892 69.24C131.072 69.4 131.352 69.48 131.732 69.48C132.572 69.48 133.462 69.33 134.402 69.03C135.342 68.73 136.302 68.34 137.282 67.86C138.262 67.38 139.202 66.87 140.102 66.33C141.002 65.79 141.822 65.28 142.562 64.8C143.322 64.32 143.952 63.93 144.452 63.63C144.952 63.33 145.282 63.18 145.442 63.18C145.682 63.18 145.862 63.26 145.982 63.42C146.122 63.56 146.192 63.73 146.192 63.93C146.192 64.09 145.942 64.4 145.442 64.86C144.962 65.32 144.312 65.86 143.492 66.48C142.672 67.08 141.752 67.7 140.732 68.34C139.712 68.98 138.652 69.58 137.552 70.14C136.472 70.7 135.422 71.15 134.402 71.49C133.402 71.83 132.502 72 131.702 72C130.662 72 129.852 71.61 129.272 70.83C128.692 70.05 128.402 68.84 128.402 67.2C128.402 66.1 128.542 64.99 128.822 63.87C129.122 62.75 129.522 61.68 130.022 60.66C130.542 59.62 131.112 58.7 131.732 57.9C132.372 57.08 133.042 56.44 133.742 55.98C134.442 55.5 135.122 55.26 135.782 55.26C137.042 55.26 138.032 55.61 138.752 56.31C139.472 57.01 139.832 57.93 139.832 59.07ZM131.492 64.05C132.112 63.67 132.752 63.27 133.412 62.85C134.072 62.43 134.682 62 135.242 61.56C135.802 61.12 136.252 60.66 136.592 60.18C136.952 59.68 137.132 59.17 137.132 58.65C137.132 57.91 136.732 57.54 135.932 57.54C135.432 57.54 134.902 57.86 134.342 58.5C133.802 59.12 133.282 59.93 132.782 60.93C132.282 61.93 131.852 62.97 131.492 64.05ZM159.978 71.31C159.398 71.31 158.878 70.98 158.418 70.32C157.958 69.66 157.728 68.81 157.728 67.77C157.728 66.63 157.878 65.41 158.178 64.11C158.498 62.81 158.888 61.49 159.348 60.15C159.808 58.79 160.258 57.48 160.698 56.22C160.798 55.96 160.938 55.77 161.118 55.65C161.318 55.51 161.618 55.44 162.018 55.44C162.738 55.44 163.098 55.79 163.098 56.49C163.098 56.65 163.018 57.01 162.858 57.57C162.698 58.13 162.488 58.82 162.228 59.64C161.988 60.46 161.738 61.35 161.478 62.31C161.218 63.25 160.988 64.2 160.788 65.16C160.588 66.12 160.448 67.01 160.368 67.83C160.688 67.49 161.048 66.97 161.448 66.27C161.868 65.57 162.318 64.78 162.798 63.9C163.278 63 163.778 62.1 164.298 61.2C164.818 60.28 165.338 59.44 165.858 58.68C166.398 57.9 166.918 57.28 167.418 56.82C167.938 56.34 168.418 56.1 168.858 56.1C169.498 56.1 170.038 56.3 170.478 56.7C170.938 57.08 171.288 57.76 171.528 58.74C171.788 59.7 171.918 61.06 171.918 62.82C171.918 63.76 172.008 64.64 172.188 65.46C172.388 66.28 172.698 66.94 173.118 67.44C173.558 67.92 174.118 68.16 174.798 68.16C175.818 68.16 176.728 67.98 177.528 67.62C178.328 67.24 179.018 66.82 179.598 66.36C180.198 65.88 180.698 65.46 181.098 65.1C181.498 64.72 181.808 64.53 182.028 64.53C182.488 64.53 182.718 64.77 182.718 65.25C182.718 65.45 182.568 65.77 182.268 66.21C181.988 66.63 181.588 67.11 181.068 67.65C180.568 68.17 179.988 68.68 179.328 69.18C178.688 69.66 177.998 70.06 177.258 70.38C176.538 70.7 175.808 70.86 175.068 70.86C173.688 70.86 172.558 70.59 171.678 70.05C170.818 69.51 170.178 68.62 169.758 67.38C169.358 66.14 169.158 64.48 169.158 62.4C169.158 61.26 169.088 60.43 168.948 59.91C168.828 59.37 168.598 59.01 168.258 58.83C168.018 59.25 167.708 59.85 167.328 60.63C166.948 61.39 166.508 62.24 166.008 63.18C165.528 64.12 165.018 65.07 164.478 66.03C163.958 66.97 163.428 67.84 162.888 68.64C162.348 69.44 161.828 70.09 161.328 70.59C160.828 71.07 160.378 71.31 159.978 71.31ZM193.094 59.07C193.094 59.71 192.894 60.34 192.494 60.96C192.094 61.56 191.564 62.14 190.904 62.7C190.244 63.24 189.514 63.75 188.714 64.23C187.914 64.71 187.114 65.13 186.314 65.49C185.514 65.85 184.784 66.14 184.124 66.36C183.964 67.14 183.884 67.83 183.884 68.43C183.884 68.81 183.974 69.08 184.154 69.24C184.334 69.4 184.614 69.48 184.994 69.48C185.834 69.48 186.724 69.33 187.664 69.03C188.604 68.73 189.564 68.34 190.544 67.86C191.524 67.38 192.464 66.87 193.364 66.33C194.264 65.79 195.084 65.28 195.824 64.8C196.584 64.32 197.214 63.93 197.714 63.63C198.214 63.33 198.544 63.18 198.704 63.18C198.944 63.18 199.124 63.26 199.244 63.42C199.384 63.56 199.454 63.73 199.454 63.93C199.454 64.09 199.204 64.4 198.704 64.86C198.224 65.32 197.574 65.86 196.754 66.48C195.934 67.08 195.014 67.7 193.994 68.34C192.974 68.98 191.914 69.58 190.814 70.14C189.734 70.7 188.684 71.15 187.664 71.49C186.664 71.83 185.764 72 184.964 72C183.924 72 183.114 71.61 182.534 70.83C181.954 70.05 181.664 68.84 181.664 67.2C181.664 66.1 181.804 64.99 182.084 63.87C182.384 62.75 182.784 61.68 183.284 60.66C183.804 59.62 184.374 58.7 184.994 57.9C185.634 57.08 186.304 56.44 187.004 55.98C187.704 55.5 188.384 55.26 189.044 55.26C190.304 55.26 191.294 55.61 192.014 56.31C192.734 57.01 193.094 57.93 193.094 59.07ZM184.754 64.05C185.374 63.67 186.014 63.27 186.674 62.85C187.334 62.43 187.944 62 188.504 61.56C189.064 61.12 189.514 60.66 189.854 60.18C190.214 59.68 190.394 59.17 190.394 58.65C190.394 57.91 189.994 57.54 189.194 57.54C188.694 57.54 188.164 57.86 187.604 58.5C187.064 59.12 186.544 59.93 186.044 60.93C185.544 61.93 185.114 62.97 184.754 64.05ZM201.133 72.87C200.433 72.87 199.853 72.56 199.393 71.94C198.953 71.3 198.733 70.17 198.733 68.55C198.733 66.85 198.763 65.2 198.823 63.6C198.883 61.98 198.993 60.53 199.153 59.25C199.333 57.97 199.573 56.95 199.873 56.19C200.173 55.43 200.563 55.05 201.043 55.05C201.383 55.05 201.683 55.24 201.943 55.62C202.203 55.98 202.333 56.46 202.333 57.06C202.333 57.68 202.273 58.51 202.153 59.55C202.033 60.59 201.883 61.71 201.703 62.91C201.543 64.09 201.403 65.24 201.283 66.36C201.163 67.46 201.103 68.39 201.103 69.15C201.103 69.47 201.113 69.73 201.133 69.93C201.173 70.11 201.233 70.2 201.313 70.2C201.613 70.2 201.933 69.94 202.273 69.42C202.633 68.88 203.013 68.18 203.413 67.32C203.813 66.44 204.233 65.48 204.673 64.44C205.113 63.38 205.563 62.33 206.023 61.29C206.483 60.25 206.953 59.3 207.433 58.44C207.913 57.56 208.393 56.86 208.873 56.34C209.353 55.8 209.823 55.53 210.283 55.53C210.823 55.53 211.323 55.79 211.783 56.31C212.263 56.81 212.503 57.53 212.503 58.47C212.503 58.75 212.463 59.24 212.383 59.94C212.303 60.62 212.203 61.4 212.083 62.28C211.963 63.16 211.843 64.04 211.723 64.92C211.603 65.78 211.503 66.55 211.423 67.23C211.343 67.89 211.303 68.36 211.303 68.64C211.303 69.68 211.403 70.2 211.603 70.2C212.163 70.2 212.753 69.85 213.373 69.15C214.013 68.43 214.653 67.51 215.293 66.39C215.953 65.25 216.603 64.02 217.243 62.7C217.903 61.36 218.533 60.08 219.133 58.86C219.413 58.22 219.643 57.79 219.823 57.57C220.023 57.33 220.223 57.21 220.423 57.21C220.703 57.21 220.963 57.36 221.203 57.66C221.463 57.96 221.593 58.37 221.593 58.89C221.593 59.07 221.583 59.25 221.563 59.43C221.543 59.59 221.493 59.77 221.413 59.97C220.733 61.77 220.003 63.44 219.223 64.98C218.443 66.5 217.643 67.83 216.823 68.97C216.023 70.09 215.233 70.97 214.453 71.61C213.673 72.23 212.953 72.54 212.293 72.54C211.153 72.54 210.263 72.22 209.623 71.58C209.003 70.92 208.693 70.04 208.693 68.94C208.693 68.48 208.723 67.88 208.783 67.14C208.863 66.4 208.953 65.6 209.053 64.74C209.173 63.88 209.293 63.05 209.413 62.25C209.533 61.45 209.633 60.75 209.713 60.15C209.813 59.55 209.873 59.14 209.893 58.92C209.913 58.64 209.883 58.5 209.803 58.5C209.723 58.5 209.563 58.76 209.323 59.28C209.103 59.78 208.833 60.42 208.513 61.2C208.213 61.96 207.893 62.75 207.553 63.57C207.173 64.47 206.733 65.46 206.233 66.54C205.753 67.6 205.233 68.61 204.673 69.57C204.133 70.53 203.563 71.32 202.963 71.94C202.363 72.56 201.753 72.87 201.133 72.87ZM243.423 72.3C242.243 72.3 241.313 71.85 240.633 70.95C239.953 70.05 239.613 68.88 239.613 67.44C239.613 66.92 239.683 66.37 239.823 65.79C239.983 65.19 240.183 64.65 240.423 64.17C240.283 64.03 240.173 63.84 240.093 63.6C240.013 63.34 239.973 63.02 239.973 62.64C239.973 61.46 240.173 60.38 240.573 59.4C240.973 58.42 241.503 57.57 242.163 56.85C242.823 56.11 243.553 55.54 244.353 55.14C245.173 54.74 246.003 54.54 246.843 54.54C248.223 54.54 249.343 55.04 250.203 56.04C251.063 57.02 251.493 58.52 251.493 60.54C251.493 61.6 251.333 62.68 251.013 63.78C250.713 64.88 250.293 65.94 249.753 66.96C249.233 67.98 248.623 68.89 247.923 69.69C247.243 70.49 246.513 71.13 245.733 71.61C244.973 72.07 244.203 72.3 243.423 72.3ZM242.403 63.15C242.523 63.31 242.583 63.52 242.583 63.78C242.583 64.08 242.523 64.38 242.403 64.68C242.303 64.98 242.193 65.39 242.073 65.91C241.953 66.43 241.893 67.17 241.893 68.13C241.893 69.09 242.273 69.57 243.033 69.57C243.873 69.57 244.653 69.24 245.373 68.58C246.093 67.9 246.733 67.03 247.293 65.97C247.853 64.91 248.283 63.78 248.583 62.58C248.903 61.36 249.063 60.21 249.063 59.13C249.063 58.43 248.933 57.94 248.673 57.66C248.413 57.36 247.943 57.21 247.263 57.21C246.563 57.21 245.833 57.45 245.073 57.93C244.333 58.39 243.713 59.02 243.213 59.82C242.713 60.62 242.463 61.52 242.463 62.52C242.463 62.74 242.443 62.95 242.403 63.15ZM255.323 80.91C254.983 80.91 254.713 80.79 254.513 80.55C254.333 80.31 254.243 79.85 254.243 79.17C254.243 78.19 254.313 77.05 254.453 75.75C254.593 74.45 254.783 73.07 255.023 71.61C255.283 70.15 255.563 68.69 255.863 67.23C256.183 65.77 256.513 64.38 256.853 63.06C257.213 61.74 257.563 60.57 257.903 59.55C258.243 58.51 258.553 57.69 258.833 57.09C259.133 56.49 259.393 56.19 259.613 56.19C259.993 56.19 260.293 56.3 260.513 56.52C260.753 56.74 260.873 57.07 260.873 57.51C260.873 58.07 260.703 58.98 260.363 60.24C260.023 61.48 259.583 63.1 259.043 65.1C259.543 64.18 260.083 63.22 260.663 62.22C261.243 61.22 261.853 60.25 262.493 59.31C263.133 58.35 263.773 57.49 264.413 56.73C265.073 55.97 265.713 55.36 266.333 54.9C266.953 54.44 267.553 54.21 268.133 54.21C268.753 54.21 269.303 54.41 269.783 54.81C270.263 55.19 270.633 55.71 270.893 56.37C271.173 57.01 271.313 57.73 271.313 58.53C271.313 60.19 271.033 61.8 270.473 63.36C269.913 64.9 269.133 66.29 268.133 67.53C267.153 68.75 265.993 69.72 264.653 70.44C263.333 71.16 261.903 71.52 260.363 71.52C259.783 71.52 259.263 71.49 258.803 71.43C258.343 71.37 257.943 71.3 257.603 71.22C257.363 72.54 257.133 73.9 256.913 75.3C256.693 76.7 256.473 78.19 256.253 79.77C256.193 80.19 256.093 80.48 255.953 80.64C255.813 80.82 255.603 80.91 255.323 80.91ZM268.673 56.49C268.253 56.49 267.753 56.73 267.173 57.21C266.613 57.69 266.003 58.33 265.343 59.13C264.703 59.91 264.053 60.78 263.393 61.74C262.733 62.68 262.093 63.64 261.473 64.62C260.853 65.6 260.283 66.51 259.763 67.35C259.263 68.19 258.853 68.89 258.533 69.45C260.093 69.41 261.463 69.1 262.643 68.52C263.823 67.92 264.833 67.16 265.673 66.24C266.513 65.3 267.193 64.29 267.713 63.21C268.253 62.11 268.643 61.05 268.883 60.03C269.123 58.99 269.243 58.09 269.243 57.33C269.243 56.77 269.053 56.49 268.673 56.49ZM272.566 62.4C272.026 62.36 271.776 62.01 271.816 61.35C271.836 61.19 271.946 61 272.146 60.78C272.346 60.54 272.576 60.41 272.836 60.39C273.456 60.33 274.216 60.24 275.116 60.12C276.036 59.98 277.046 59.82 278.146 59.64C278.346 58.66 278.586 57.63 278.866 56.55C279.146 55.47 279.456 54.42 279.796 53.4C280.136 52.36 280.496 51.42 280.876 50.58C281.256 49.74 281.656 49.08 282.076 48.6C282.296 48.38 282.496 48.23 282.676 48.15C282.856 48.05 283.016 48 283.156 48C283.436 48 283.656 48.12 283.816 48.36C283.996 48.6 284.086 48.87 284.086 49.17C284.086 49.33 284.056 49.49 283.996 49.65C283.596 50.77 283.166 52.15 282.706 53.79C282.246 55.43 281.756 57.22 281.236 59.16C283.076 58.86 284.916 58.54 286.756 58.2C288.596 57.86 290.176 57.55 291.496 57.27C291.876 57.11 292.166 57.14 292.366 57.36C292.586 57.58 292.696 57.8 292.696 58.02C292.696 58.3 292.616 58.51 292.456 58.65C292.316 58.79 292.166 58.91 292.006 59.01L291.976 59.04C291.576 59.2 290.976 59.39 290.176 59.61C289.376 59.81 288.456 60.03 287.416 60.27C286.376 60.49 285.266 60.71 284.086 60.93C282.926 61.15 281.776 61.35 280.636 61.53C280.176 63.29 279.706 65.1 279.226 66.96C278.766 68.8 278.306 70.61 277.846 72.39C277.646 73.11 277.416 73.56 277.156 73.74C276.916 73.94 276.656 74.04 276.376 74.04C276.056 74.04 275.776 73.92 275.536 73.68C275.316 73.44 275.286 72.95 275.446 72.21L277.636 61.98C276.436 62.16 275.376 62.29 274.456 62.37C273.556 62.45 272.926 62.46 272.566 62.4ZM289.816 72.15C289.436 72.15 289.096 72.01 288.796 71.73C288.496 71.43 288.346 70.97 288.346 70.35C288.346 69.91 288.406 69.3 288.526 68.52C288.646 67.72 288.806 66.85 289.006 65.91C289.206 64.97 289.416 64.04 289.636 63.12C289.876 62.18 290.116 61.34 290.356 60.6C290.596 59.86 290.806 59.31 290.986 58.95C291.146 58.67 291.296 58.49 291.436 58.41C291.596 58.33 291.746 58.29 291.886 58.29C292.166 58.29 292.406 58.38 292.606 58.56C292.826 58.74 292.936 59.09 292.936 59.61C292.936 59.91 292.876 60.41 292.756 61.11C292.656 61.79 292.516 62.59 292.336 63.51C292.176 64.41 291.996 65.34 291.796 66.3C291.616 67.24 291.436 68.14 291.256 69C291.076 69.86 290.936 70.58 290.836 71.16C290.756 71.48 290.616 71.73 290.416 71.91C290.236 72.07 290.036 72.15 289.816 72.15ZM292.756 55.56C292.296 55.56 291.856 55.42 291.436 55.14C291.036 54.86 290.836 54.41 290.836 53.79C290.836 53.27 290.956 52.85 291.196 52.53C291.456 52.21 291.756 51.98 292.096 51.84C292.456 51.68 292.766 51.6 293.026 51.6C293.286 51.6 293.576 51.66 293.896 51.78C294.236 51.88 294.526 52.08 294.766 52.38C295.006 52.66 295.126 53.08 295.126 53.64C295.126 54.02 294.996 54.36 294.736 54.66C294.476 54.94 294.156 55.16 293.776 55.32C293.416 55.48 293.076 55.56 292.756 55.56ZM315.022 73.08C314.442 73.08 314.032 72.89 313.792 72.51C313.552 72.13 313.432 71.48 313.432 70.56C313.432 69.82 313.522 68.9 313.702 67.8C313.902 66.7 314.142 65.49 314.422 64.17C314.702 62.83 314.992 61.45 315.292 60.03C314.072 61.69 312.722 63.02 311.242 64.02C309.782 65 308.162 65.64 306.382 65.94C305.962 66.92 305.482 67.81 304.942 68.61C304.402 69.41 303.812 70.05 303.172 70.53C302.532 71.01 301.862 71.25 301.162 71.25C300.302 71.25 299.572 70.9 298.972 70.2C298.392 69.5 298.102 68.48 298.102 67.14C298.102 66.22 298.222 65.4 298.462 64.68C298.702 63.94 298.972 63.41 299.272 63.09C298.992 62.35 298.852 61.5 298.852 60.54C298.852 59.36 299.122 58.32 299.662 57.42C300.202 56.5 300.922 55.79 301.822 55.29C302.722 54.77 303.692 54.51 304.732 54.51C305.572 54.51 306.322 54.9 306.982 55.68C307.642 56.46 307.972 57.58 307.972 59.04C307.972 60.4 307.732 61.91 307.252 63.57C308.352 63.15 309.452 62.51 310.552 61.65C311.672 60.79 312.752 59.76 313.792 58.56C314.832 57.36 315.772 56.03 316.612 54.57C316.832 54.21 317.142 54.03 317.542 54.03C317.902 54.03 318.182 54.14 318.382 54.36C318.602 54.56 318.712 54.84 318.712 55.2C318.712 55.3 318.652 55.64 318.532 56.22C318.432 56.8 318.292 57.54 318.112 58.44C317.952 59.34 317.772 60.33 317.572 61.41C317.372 62.49 317.172 63.58 316.972 64.68C316.792 65.78 316.642 66.8 316.522 67.74C316.982 66.86 317.502 65.9 318.082 64.86C318.662 63.82 319.252 62.8 319.852 61.8C320.472 60.78 321.062 59.85 321.622 59.01C322.202 58.17 322.712 57.5 323.152 57C323.612 56.48 323.972 56.22 324.232 56.22C324.712 56.22 325.132 56.38 325.492 56.7C325.852 57.02 326.032 57.35 326.032 57.69C326.032 58.15 325.982 58.85 325.882 59.79C325.782 60.71 325.662 61.75 325.522 62.91C325.382 64.07 325.242 65.23 325.102 66.39C324.962 67.55 324.842 68.6 324.742 69.54C324.642 70.48 324.592 71.18 324.592 71.64C324.592 71.94 324.462 72.21 324.202 72.45C323.942 72.69 323.652 72.81 323.332 72.81C323.112 72.81 322.922 72.74 322.762 72.6C322.622 72.48 322.512 72.2 322.432 71.76C322.352 71.32 322.312 70.64 322.312 69.72C322.312 68.82 322.342 67.84 322.402 66.78C322.462 65.7 322.542 64.63 322.642 63.57C322.762 62.49 322.892 61.52 323.032 60.66C322.572 61.42 322.042 62.33 321.442 63.39C320.862 64.45 320.252 65.54 319.612 66.66C318.972 67.78 318.352 68.83 317.752 69.81C317.152 70.79 316.612 71.58 316.132 72.18C315.652 72.78 315.282 73.08 315.022 73.08ZM304.612 64.05C304.852 63.29 305.042 62.48 305.182 61.62C305.342 60.74 305.422 59.86 305.422 58.98C305.422 58.46 305.322 58.04 305.122 57.72C304.922 57.4 304.652 57.24 304.312 57.24C303.792 57.24 303.282 57.39 302.782 57.69C302.282 57.97 301.862 58.37 301.522 58.89C301.202 59.41 301.042 60.03 301.042 60.75C301.042 61.65 301.382 62.42 302.062 63.06C302.762 63.68 303.612 64.01 304.612 64.05ZM303.802 66.12C302.442 66.06 301.342 65.66 300.502 64.92C300.462 65.18 300.422 65.43 300.382 65.67C300.342 65.89 300.322 66.11 300.322 66.33C300.322 66.95 300.422 67.44 300.622 67.8C300.842 68.14 301.172 68.31 301.612 68.31C301.972 68.31 302.342 68.11 302.722 67.71C303.102 67.31 303.462 66.78 303.802 66.12ZM335.821 72.66C335.381 72.66 335.041 72.53 334.801 72.27C334.581 72.03 334.471 71.75 334.471 71.43C334.471 71.15 334.591 70.89 334.831 70.65C335.091 70.39 335.441 70.16 335.881 69.96C336.681 69.54 337.431 69.12 338.131 68.7C338.851 68.28 339.431 67.83 339.871 67.35C340.311 66.87 340.531 66.36 340.531 65.82C340.531 65.36 340.381 65.01 340.081 64.77C339.781 64.51 339.371 64.38 338.851 64.38C338.551 64.38 338.131 64.44 337.591 64.56C337.051 64.66 336.461 64.78 335.821 64.92C335.201 65.04 334.591 65.16 333.991 65.28C333.391 65.38 332.881 65.43 332.461 65.43C331.701 65.43 331.131 65.25 330.751 64.89C330.371 64.51 330.181 64 330.181 63.36C330.181 63.04 330.371 62.56 330.751 61.92C331.131 61.28 331.631 60.57 332.251 59.79C332.891 58.99 333.591 58.19 334.351 57.39C335.111 56.59 335.881 55.85 336.661 55.17C337.461 54.49 338.201 53.94 338.881 53.52C339.581 53.1 340.161 52.89 340.621 52.89C341.081 52.89 341.431 53.04 341.671 53.34C341.911 53.64 342.031 54.02 342.031 54.48C342.031 54.84 341.971 55.15 341.851 55.41C341.731 55.65 341.481 55.84 341.101 55.98C340.741 56.12 340.181 56.2 339.421 56.22C338.641 56.84 337.811 57.55 336.931 58.35C336.071 59.13 335.281 59.94 334.561 60.78C333.861 61.6 333.351 62.39 333.031 63.15C333.691 62.93 334.491 62.74 335.431 62.58C336.391 62.4 337.361 62.31 338.341 62.31C339.881 62.31 341.021 62.66 341.761 63.36C342.521 64.04 342.901 64.94 342.901 66.06C342.901 66.78 342.671 67.53 342.211 68.31C341.771 69.07 341.191 69.78 340.471 70.44C339.751 71.1 338.981 71.63 338.161 72.03C337.341 72.45 336.561 72.66 335.821 72.66Z" fill="black"/>
<path d="M351.007 34.3246C362.613 31.5756 374.234 28.3628 386.245 28.2056C397.256 28.0615 409.725 29.4335 419.612 34.6502C434.517 42.5148 439.443 56.7423 446.86 70.5842" stroke="black" stroke-width="3"/>
<path d="M425.951 67.4891C430.888 66.3198 435.462 68.3426 440.093 69.6469C442.375 70.2898 444.527 71.9256 446.878 72.1358" stroke="black" stroke-width="3"/>
<path d="M447.824 71.7648C447.682 70.8406 447.849 70.0143 448.096 69.1106C448.834 66.4102 449.908 63.8316 451.169 61.3374C453.28 57.162 455.451 53.3199 458.552 49.8249" stroke="black" stroke-width="3"/>
</svg>
